<?xml version="1.0" standalone="no"?>
<!DOCTYPE svg PUBLIC "-//W3C//DTD SVG 20010904//EN"
 "http://www.w3.org/TR/2001/REC-SVG-20010904/DTD/svg10.dtd">
<svg version="1.0" xmlns="http://www.w3.org/2000/svg"
 width="962.000000pt" height="536.000000pt" viewBox="0 0 962.000000 536.000000"
 preserveAspectRatio="xMidYMid meet">

<g transform="translate(0.000000,536.000000) scale(0.100000,-0.100000)"
fill="#000000" stroke="none">
<path d="M15 5330 c-4 -6 6 -10 22 -11 15 0 22 -3 15 -6 -6 -2 -9 -10 -5 -16
4 -8 1 -7 -9 1 -13 10 -16 9 -21 -8 -3 -11 -1 -20 4 -20 5 0 9 -1093 9 -2581
0 -1950 -3 -2579 -11 -2573 -9 5 -10 -1 -5 -22 4 -16 7 -41 6 -56 0 -16 4 -28
10 -28 5 0 10 6 10 13 0 7 14 13 32 13 l33 1 -30 -13 c-25 -11 789 -13 4748
-14 4545 0 4778 1 4775 17 -3 17 -239 18 -4743 23 l-4740 5 4742 3 c4736 2
4742 2 4738 22 -2 11 2 20 8 20 7 0 4 7 -5 14 -19 14 -25 32 -8 21 14 -8 14
5100 0 5125 -9 16 -8 19 7 14 15 -5 16 -4 3 5 -22 16 -30 13 -30 -8 0 -28 -27
-75 -33 -59 -3 7 -6 -1108 -6 -2479 -1 -1370 3 -2494 8 -2497 4 -3 7 -27 6
-52 -2 -35 2 -53 16 -68 22 -23 24 -36 7 -36 -6 0 -8 3 -5 7 8 7 -11 33 -25
33 -5 0 -4 -10 3 -21 8 -15 8 -19 0 -15 -6 4 -11 2 -11 -3 0 -8 -1404 -11
-4718 -11 l-4717 0 -14 22 c-9 14 -10 23 -4 25 6 2 8 19 5 41 -4 20 -6 51 -6
67 5 235 2 5000 -2 5007 -4 6 -10 5 -15 -3 -6 -10 -9 -6 -9 13 0 21 4 25 19
21 13 -3 21 2 26 16 7 24 25 28 25 6 0 -13 530 -15 4690 -12 3897 2 4692 4
4699 15 7 11 9 10 15 -3 3 -9 10 -13 16 -10 13 8 13 -1 0 -26 -6 -10 -8 -19
-6 -19 3 0 10 9 16 21 9 15 8 24 -1 35 -10 12 -5 14 27 15 22 0 33 3 26 6 -10
4 -10 8 -1 19 10 12 -692 14 -4784 14 -3182 0 -4798 -3 -4802 -10z m7178 -17
c-1304 -2 -3442 -2 -4750 0 -1308 1 -240 2 2372 2 2613 0 3683 -1 2378 -2z
m2387 -2615 l-5 -2533 -5 2520 c-4 2146 -2 2545 14 2545 0 0 -1 -1140 -4
-2532z m-9523 -1325 c-1 -703 -2 -128 -2 1277 0 1405 1 1980 2 1278 2 -703 2
-1853 0 -2555z"/>
<path d="M650 2765 l0 -1595 668 2 667 3 0 1590 0 1590 -667 3 -668 2 0 -1595z
m1290 0 l0 -1555 -625 0 -625 0 0 1555 0 1555 625 0 625 0 0 -1555z"/>
<path d="M972 4288 c-15 -15 -15 -51 0 -66 28 -28 88 -1 74 34 -7 18 -47 15
-54 -5 -3 -10 2 -11 18 -6 16 5 21 4 18 -6 -8 -24 -45 -23 -53 1 -9 28 12 52
44 48 22 -3 32 -19 84 -141 49 -112 64 -138 83 -143 26 -7 33 -24 10 -24 -29
0 -55 38 -97 144 -24 59 -45 104 -46 99 -2 -5 18 -61 45 -124 42 -99 52 -115
77 -124 17 -5 32 -12 35 -16 3 -3 13 -8 23 -12 18 -7 23 -32 7 -42 -5 -3 -15
-1 -22 5 -7 7 -38 22 -68 33 -53 21 -56 25 -127 141 -40 66 -70 123 -67 127 6
10 -18 49 -30 49 -5 0 -18 8 -28 17 -11 10 -22 13 -27 7 -6 -5 30 -75 89 -173
55 -91 97 -168 94 -173 -8 -12 -1 -21 -84 117 -40 66 -77 123 -84 127 -18 12
-71 9 -84 -4 -7 -7 -12 -22 -12 -33 0 -38 58 -73 75 -45 13 20 24 8 80 -87 32
-54 69 -113 82 -131 13 -17 21 -36 18 -42 -10 -16 14 -50 35 -50 11 0 20 9 23
23 2 12 5 -11 6 -50 0 -40 -1 -73 -3 -73 -11 0 -156 252 -150 261 8 13 -54 69
-77 69 -24 0 -28 10 88 -183 47 -78 87 -145 89 -149 2 -4 0 -9 -5 -12 -5 -3
-35 38 -66 92 -82 138 -101 162 -131 162 -41 0 -64 -18 -64 -48 0 -16 5 -33
12 -40 15 -15 65 -16 74 -1 4 7 18 -7 35 -35 16 -25 29 -48 29 -51 0 -11 -28
-4 -40 10 -12 14 -30 12 -30 -4 0 -17 202 -347 220 -360 11 -7 20 -19 20 -26
0 -7 10 -20 23 -28 l22 -16 -22 0 c-12 -1 -25 -5 -28 -11 -17 -27 -41 3 -135
165 -87 150 -105 175 -126 175 -17 0 -24 -6 -24 -19 0 -11 5 -23 10 -26 6 -3
10 1 10 10 0 9 5 15 11 13 15 -5 13 -21 -4 -32 -21 -13 -47 10 -47 40 0 26 33
41 67 30 11 -4 63 -81 123 -181 56 -96 105 -173 107 -171 3 2 0 13 -6 24 -7
13 -7 22 1 30 9 9 8 12 -3 12 -21 0 -38 23 -114 151 -83 140 -90 149 -130 149
-38 0 -55 -16 -55 -52 0 -37 40 -59 72 -39 11 7 21 11 23 9 1 -2 41 -70 89
-152 53 -91 86 -159 86 -177 0 -33 15 -45 35 -29 13 11 15 6 15 -29 0 -22 -4
-41 -8 -41 -13 0 -173 290 -166 301 7 13 -65 81 -80 76 -6 -3 -10 -10 -8 -17
5 -23 205 -371 209 -366 3 3 -40 84 -96 182 -56 97 -101 178 -101 180 0 9 50
-20 51 -30 1 -6 2 -15 3 -21 0 -5 38 -77 84 -158 79 -140 83 -149 65 -162 -10
-7 -19 -12 -20 -11 -1 1 -38 65 -81 141 -85 149 -94 157 -158 141 -31 -8 -33
-55 -4 -81 17 -15 24 -16 47 -6 29 13 29 13 59 -43 9 -15 12 -26 7 -24 -4 2
-20 10 -35 18 -16 7 -31 11 -34 8 -3 -4 41 -91 99 -195 97 -175 125 -233 114
-233 -3 0 -42 68 -88 151 -89 162 -104 177 -159 158 -24 -9 -30 -17 -30 -40 0
-19 8 -34 24 -44 23 -15 56 -12 56 6 0 6 -8 6 -19 0 -26 -14 -54 8 -49 40 3
21 8 24 43 24 l40 0 90 -160 c79 -140 94 -160 118 -163 34 -4 36 -22 2 -22
-36 0 -51 19 -138 177 -44 78 -85 147 -93 154 -19 16 -44 4 -44 -21 0 -22 16
-27 23 -7 5 16 44 -17 63 -55 17 -33 2 -38 -28 -11 -12 10 -22 13 -28 7 -6 -6
33 -84 106 -211 64 -111 114 -207 112 -214 -2 -7 -43 57 -90 142 -90 162 -107
179 -161 165 -36 -9 -50 -38 -35 -71 15 -32 53 -43 77 -21 17 15 22 9 97 -126
43 -78 89 -154 102 -170 24 -28 65 -38 77 -18 4 7 12 7 25 0 10 -5 27 -7 37
-4 15 5 15 4 3 -5 -10 -7 -11 -11 -2 -11 6 0 12 -10 12 -22 0 -19 2 -20 10 -8
8 13 10 12 10 -3 0 -15 -7 -18 -37 -15 -27 2 -39 8 -41 21 -2 9 1 17 7 17 6 0
11 -7 11 -15 0 -8 4 -15 9 -15 11 0 2 38 -11 46 -12 8 -28 -14 -28 -38 0 -43
95 -47 103 -5 4 19 4 19 6 -4 1 -25 3 -26 71 -26 83 0 83 -1 78 122 l-3 80
-40 6 -40 6 42 2 c23 0 45 -4 49 -11 4 -7 8 -47 8 -90 1 -93 16 -117 48 -78
l20 25 -3 -25 c-4 -22 -9 -25 -41 -25 -20 0 -33 -4 -29 -8 5 -5 24 -7 42 -5
32 3 34 5 35 42 0 39 16 58 29 37 25 -42 81 18 176 188 78 141 84 149 101 135
39 -36 104 17 79 65 -6 11 -23 24 -36 27 -57 14 -67 3 -175 -191 -75 -132
-109 -185 -122 -185 -12 0 -18 8 -18 23 0 18 5 23 21 23 16 -1 30 15 59 69 20
39 76 137 123 220 56 96 83 153 77 159 -6 6 -16 4 -28 -7 -32 -29 -43 -19 -21
18 19 31 22 33 36 19 21 -20 42 -15 65 17 25 33 12 64 -29 72 -50 9 -66 -7
-151 -161 -45 -82 -90 -156 -99 -163 -20 -17 -26 -30 119 234 61 109 107 201
104 204 -3 4 -17 0 -31 -7 -35 -19 -39 -8 -15 34 19 31 23 34 37 21 18 -19 34
-19 57 -2 22 16 25 65 5 78 -17 11 -70 11 -85 1 -6 -4 -46 -69 -88 -144 -43
-76 -83 -138 -88 -138 -10 0 26 68 144 274 46 79 65 123 59 129 -14 14 -81
-39 -81 -64 0 -11 -28 -71 -62 -132 -48 -85 -64 -106 -66 -89 -2 15 30 82 90
186 88 156 94 163 111 148 16 -15 21 -15 45 -1 31 17 41 59 18 78 -8 7 -32 11
-53 9 -37 -3 -39 -5 -114 -133 -87 -148 -139 -208 -139 -161 0 8 -6 17 -12 19
-10 4 -10 6 -1 6 6 1 14 -3 18 -9 7 -12 35 -1 35 14 0 6 45 85 99 176 101 168
111 204 43 152 -39 -30 -39 -29 2 46 27 48 46 66 46 42 0 -15 56 -12 69 4 21
25 9 69 -21 80 -48 17 -69 -4 -161 -158 -49 -80 -92 -146 -97 -146 -12 0 22
64 134 248 47 79 86 145 86 148 0 2 -9 4 -19 4 -23 0 -85 -56 -76 -70 7 -11
-142 -260 -156 -260 -5 0 -9 34 -9 75 0 43 4 75 10 75 6 0 10 -7 10 -15 0 -9
7 -18 15 -21 19 -8 45 13 45 36 0 14 135 248 154 267 3 3 12 0 21 -7 23 -19
64 -4 71 27 4 14 2 33 -3 42 -11 17 -71 26 -89 14 -6 -5 -51 -74 -99 -155 -55
-91 -95 -148 -104 -148 -13 1 -13 2 2 11 9 5 17 15 17 22 0 7 47 91 104 187
59 99 101 179 96 184 -12 12 -89 -51 -87 -72 0 -9 -30 -69 -68 -133 l-69 -116
-66 -18 c-36 -10 -70 -24 -77 -32 -6 -8 -16 -12 -21 -9 -13 8 -3 46 12 46 7 0
30 9 52 19 37 18 43 27 89 140 33 82 52 118 59 111 17 -17 55 -11 66 10 15 28
3 59 -25 66 -49 12 -58 3 -115 -131 -43 -100 -56 -123 -58 -102 -2 19 -11 29
-28 33 -36 9 -54 -12 -54 -62 l0 -44 -60 0 c-47 0 -60 3 -60 15 0 12 13 15 55
15 l55 0 0 75 c0 58 3 75 14 75 9 0 12 -7 9 -20 -3 -11 -1 -20 5 -20 16 0 62
59 56 73 -3 8 7 19 21 25 14 7 23 17 20 22 -3 5 0 7 8 4 14 -5 34 12 24 22 -9
10 -58 -16 -51 -28 4 -7 3 -8 -4 -4 -7 4 -22 0 -34 -8 -12 -9 -35 -16 -50 -16
-15 0 -30 -5 -33 -10 -4 -6 -10 -8 -14 -5 -5 2 -16 -4 -26 -15 -18 -20 -18
-20 -29 2 -7 15 -23 24 -41 26 -16 2 -42 13 -57 24 -15 10 -33 16 -39 12 -7
-4 -9 -3 -6 3 4 6 -2 13 -13 16 -37 10 -31 -12 9 -32 25 -13 41 -29 43 -43 2
-13 9 -22 16 -20 8 1 11 -1 9 -5 -8 -12 20 -46 32 -39 6 4 8 13 4 21 -3 8 0
15 6 15 6 0 11 -19 11 -44 l0 -44 -30 11 c-24 9 -33 9 -45 -4 -21 -20 -9 -52
16 -46 14 4 19 0 19 -14 0 -21 -23 -25 -37 -6 -5 6 -34 68 -63 137 -29 69 -58
128 -64 132 -17 12 -61 9 -74 -4z m666 -14 c5 -9 7 -25 5 -35 -7 -24 -53 -26
-53 -3 0 11 6 14 20 9 15 -5 18 -3 14 10 -4 9 -15 15 -26 13 -15 -2 -34 -35
-76 -136 -54 -126 -77 -159 -105 -149 -7 2 0 10 15 17 21 10 37 38 79 139 29
69 56 132 62 139 14 17 54 15 65 -4z m-723 -20 c14 -9 25 -25 25 -35 0 -10 32
-70 70 -134 73 -122 75 -125 61 -125 -4 0 -38 51 -74 113 -37 61 -78 131 -92
155 -29 46 -27 50 10 26z m815 -21 c-112 -191 -176 -291 -178 -283 -2 6 27 64
66 128 38 64 72 128 75 142 5 20 25 38 55 49 2 0 -6 -16 -18 -36z m-758 -203
c84 -141 87 -145 119 -143 18 1 36 8 40 15 6 8 9 2 9 -19 0 -32 -14 -45 -22
-21 -5 15 -48 21 -48 7 0 -29 -30 9 -109 141 -74 123 -91 145 -112 145 -15 0
-25 -7 -27 -17 -2 -11 3 -18 12 -18 9 0 16 5 16 12 0 9 3 9 11 1 14 -14 3 -33
-20 -33 -36 0 -54 43 -29 68 7 7 26 12 43 10 27 -3 38 -17 117 -148z m842 144
c19 -7 21 -45 4 -62 -24 -24 -69 -8 -53 19 5 6 11 4 19 -7 10 -12 15 -14 20
-5 12 18 -1 41 -23 41 -15 0 -41 -35 -100 -132 -102 -168 -99 -164 -106 -156
-6 6 136 254 168 296 10 13 45 16 71 6z m-586 -96 c15 -15 16 -92 2 -83 -5 3
-10 22 -10 41 0 33 -14 46 -23 22 -2 -7 -8 -10 -12 -6 -11 10 2 38 18 38 7 0
18 -5 25 -12z m196 6 c17 -7 22 -34 6 -34 -5 0 -10 5 -10 11 0 6 -6 9 -12 7
-7 -3 -16 -22 -19 -44 l-6 -39 -2 47 c0 29 4 48 12 51 6 3 13 6 14 6 1 1 8 -2
17 -5z m-89 -33 c-3 -6 -11 -11 -17 -11 -6 0 -6 6 2 15 14 17 26 13 15 -4z
m115 -21 c0 -5 -9 -14 -20 -20 -17 -9 -20 -8 -20 10 0 13 7 20 20 20 11 0 20
-4 20 -10z m-513 -70 c3 -14 37 -78 76 -143 38 -64 67 -120 63 -124 -8 -8 0
-20 -93 137 -112 190 -108 180 -78 166 14 -6 28 -22 32 -36z m716 -120 c-53
-89 -99 -157 -101 -151 -2 6 30 67 71 135 42 68 72 127 69 131 -4 4 6 17 23
30 16 13 31 23 32 21 2 -2 -40 -76 -94 -166z m-320 123 c-13 -2 -33 -2 -45 0
-13 2 -3 4 22 4 25 0 35 -2 23 -4z m187 -23 c0 -5 -8 -10 -18 -10 -25 0 -42
-19 -42 -47 0 -18 -6 -23 -25 -23 -18 0 -25 5 -25 20 0 11 -1 23 -2 27 -2 5
66 32 110 42 1 1 2 -3 2 -9z m-335 -20 c37 -14 31 -54 -7 -58 -25 -3 -28 0
-28 28 0 22 -6 33 -22 41 -21 9 -21 9 4 4 15 -3 39 -10 53 -15z m-80 -13 c13
-4 9 -5 -9 -4 -16 1 -32 9 -34 17 -4 12 -2 13 9 4 8 -7 23 -14 34 -17z m-223
1 c8 -7 54 -79 102 -160 48 -81 95 -149 104 -151 12 -3 10 -5 -6 -6 -12 0 -25
-8 -28 -16 -4 -8 -10 -15 -14 -15 -12 0 -80 119 -80 140 0 10 -4 22 -10 25 -5
3 -10 12 -10 18 0 7 11 -4 23 -24 63 -102 82 -129 91 -129 5 0 2 8 -6 18 -8 9
-50 76 -93 147 -77 130 -89 145 -113 145 -18 0 -27 -29 -13 -43 9 -9 14 -8 21
3 5 8 12 11 15 8 11 -10 -4 -28 -24 -28 -38 0 -56 50 -23 69 23 14 45 13 64
-1z m658 2 c0 -5 -12 -10 -27 -9 l-28 1 25 8 c14 4 26 8 28 9 1 1 2 -3 2 -9z
m271 0 c34 -19 18 -70 -22 -70 -20 0 -35 18 -24 28 3 3 10 0 15 -8 7 -11 12
-12 21 -3 15 15 5 43 -15 43 -21 0 -28 -9 -119 -160 -56 -91 -88 -136 -102
-138 -12 -2 -16 0 -9 5 7 4 51 73 99 153 48 80 92 148 99 152 16 11 34 10 57
-2z m-297 -28 c10 -5 -13 -22 -31 -22 -7 0 -13 9 -13 20 0 18 13 19 44 2z
m-273 -6 c-6 -7 -12 -38 -12 -67 -1 -61 -12 -79 -43 -78 -21 0 -21 0 2 9 18 8
22 17 22 54 0 52 14 96 31 96 9 0 9 -3 0 -14z m145 -2 c-3 -9 -6 -17 -6 -20 0
-2 -7 -1 -15 2 -9 4 -15 0 -15 -10 0 -9 -4 -16 -10 -16 -5 0 -10 6 -10 14 0 8
-6 17 -12 19 -7 3 4 6 25 6 23 1 36 5 32 11 -3 6 -1 10 5 10 7 0 9 -7 6 -16z
m-109 -24 c2 -24 -3 -25 -23 -6 -19 19 -18 26 4 26 11 0 18 -8 19 -20z m283
10 c0 -5 -7 -10 -15 -10 -8 0 -15 5 -15 10 0 6 7 10 15 10 8 0 15 -4 15 -10z
m-48 -12 c-7 -7 -12 -42 -12 -85 0 -40 -2 -73 -4 -73 -2 0 -11 -3 -20 -6 -21
-8 -22 29 -1 46 8 7 15 23 15 36 0 17 -4 22 -15 18 -11 -5 -15 1 -15 24 0 24
6 32 28 40 36 14 38 14 24 0z m-312 -48 c0 -38 -4 -50 -15 -50 -11 0 -15 11
-15 40 0 27 -6 42 -17 49 -15 9 -12 10 15 11 32 0 32 0 32 -50z m120 34 c0
-12 7 -15 26 -11 14 2 22 1 17 -3 -4 -5 -19 -10 -33 -12 -26 -5 -21 -8 25 -23
23 -7 19 -55 -4 -55 -11 0 -23 -5 -27 -11 -4 -8 -9 -8 -17 0 -6 6 -21 11 -34
11 -19 0 -23 5 -23 30 0 25 4 30 25 30 34 0 32 20 -2 21 -22 1 -23 2 -8 6 11
3 24 11 28 19 11 19 27 18 27 -2z m78 -92 c-16 -7 4 -22 28 -22 21 0 25 -4 22
-22 -3 -24 -45 -39 -57 -21 -3 5 -17 17 -31 26 -23 16 -23 17 -3 17 26 0 33
17 34 83 l2 52 7 -55 c3 -30 3 -57 -2 -58z m53 57 c-2 -40 -6 -49 -20 -47 -12
2 -17 16 -19 51 -3 43 -1 47 20 47 21 0 23 -3 19 -51z m123 27 c-6 -15 -34
-23 -34 -10 0 8 34 34 38 30 1 -2 0 -11 -4 -20z m-486 -22 c-10 -10 -28 6 -28
24 0 15 1 15 17 -1 9 -9 14 -19 11 -23z m72 -4 c0 -13 -5 -18 -15 -14 -20 8
-20 -26 0 -52 20 -26 19 -54 -2 -54 -12 0 -9 -5 11 -15 15 -8 35 -15 43 -15
10 0 13 -6 9 -16 -3 -9 -6 -20 -6 -25 0 -5 -11 -2 -25 7 -14 9 -25 22 -25 29
0 7 -6 15 -14 18 -9 4 -14 29 -15 92 -2 84 -2 86 18 75 12 -6 21 -19 21 -30z
m0 -46 c0 -8 -4 -12 -10 -9 -5 3 -10 10 -10 16 0 5 5 9 10 9 6 0 10 -7 10 -16z
m312 -6 c-7 -7 -12 -8 -12 -2 0 14 12 26 19 19 2 -3 -1 -11 -7 -17z m-531 -31
c1 -7 1 -15 0 -19 0 -4 31 -60 70 -125 39 -65 73 -121 76 -125 2 -5 0 -8 -6
-8 -5 0 -47 62 -92 138 -45 75 -89 147 -97 159 -14 22 -14 22 17 7 17 -9 32
-21 32 -27z m799 22 c-15 -27 -181 -303 -186 -308 -2 -2 -7 -2 -10 2 -4 3 8
29 25 56 23 38 29 56 22 73 -6 17 0 35 28 79 20 31 41 65 47 75 10 17 11 16 9
-8 -2 -15 -20 -55 -40 -88 -21 -34 -35 -63 -32 -66 7 -8 87 133 87 155 0 16
25 38 58 50 1 1 -2 -8 -8 -20z m-472 -23 c17 2 20 1 7 -2 -39 -11 -47 -25 -29
-45 16 -18 16 -19 -5 -19 -12 0 -19 4 -16 10 4 6 -7 10 -24 10 -26 0 -31 4
-31 23 0 17 8 25 33 32 22 7 33 7 35 -1 2 -6 15 -10 30 -8z m169 18 c-3 -3
-12 -4 -19 -1 -8 3 -5 6 6 6 11 1 17 -2 13 -5z m-87 -38 c0 -7 -50 -13 -55 -7
-2 4 10 8 26 9 16 1 29 1 29 -2z m40 -37 c0 -5 -7 -9 -15 -9 -9 0 -12 6 -9 15
6 15 24 11 24 -6z m93 4 c-13 -8 -23 -21 -23 -27 0 -6 -9 -17 -19 -23 -17 -11
-21 -9 -26 8 -8 24 -10 22 40 42 50 20 56 20 28 0z m346 8 c17 -11 7 -56 -14
-65 -21 -8 -45 3 -45 20 0 17 17 18 23 2 4 -10 7 -10 18 0 11 10 11 15 -2 28
-14 13 -18 13 -36 -3 -12 -10 -63 -90 -113 -178 -98 -172 -105 -182 -113 -168
-5 8 175 324 205 360 12 15 56 17 77 4z m-728 -26 c5 4 9 1 9 -4 0 -6 -6 -11
-13 -11 -15 0 -37 20 -37 33 0 5 7 1 16 -7 8 -9 20 -14 25 -11z m435 -7 c-9
-5 -22 -7 -29 -4 -7 2 -4 5 6 5 9 1 17 6 17 12 0 5 5 7 11 3 8 -5 6 -10 -5
-16z m-396 -28 c0 -16 7 -20 30 -20 29 0 30 -1 30 -50 0 -38 -4 -50 -15 -50
-10 0 -15 10 -15 30 0 30 -26 53 -52 47 -7 -2 -10 -2 -5 0 4 3 7 13 7 24 0 13
-7 19 -22 20 -22 1 -22 1 2 9 38 12 40 12 40 -10z m100 5 c-7 -9 -15 -13 -17
-11 -7 7 7 26 19 26 6 0 6 -6 -2 -15z m150 5 c0 -5 -2 -10 -4 -10 -3 0 -8 5
-11 10 -3 6 -1 10 4 10 6 0 11 -4 11 -10z m127 -14 c-1 -6 -17 -18 -35 -26
-27 -13 -32 -20 -32 -52 0 -20 -4 -39 -9 -42 -16 -11 -32 22 -29 61 3 33 7 38
30 41 16 2 30 11 33 22 4 12 12 16 26 13 11 -3 18 -11 16 -17z m-137 -16 c0
-5 -7 -7 -15 -4 -9 4 -15 0 -15 -10 0 -9 -4 -16 -10 -16 -5 0 -10 7 -10 15 0
10 -10 15 -31 15 -17 0 -28 -4 -24 -10 9 -15 -4 -12 -21 5 -13 12 -7 14 48 17
68 3 78 2 78 -12z m-155 -63 c-2 -23 -4 -45 -4 -49 -1 -5 -13 -7 -28 -7 -24 2
-25 2 -5 6 19 4 22 10 22 54 0 29 4 48 10 44 5 -3 7 -25 5 -48z m100 36 c10
-14 16 -15 28 -5 12 10 16 9 21 -4 4 -9 4 -19 1 -22 -3 -3 -5 -1 -5 4 0 5 -11
9 -25 9 -14 0 -25 -3 -25 -7 0 -4 11 -10 25 -14 18 -4 25 -13 25 -29 0 -16 -7
-25 -25 -29 -17 -4 -25 -13 -25 -29 0 -21 -1 -21 -13 3 -8 16 -21 25 -35 24
-32 -1 -32 53 0 58 12 2 23 9 26 17 3 9 -1 11 -16 7 -11 -4 -23 -2 -27 4 -3 6
3 10 14 10 12 0 21 5 21 10 0 16 22 12 35 -7z m193 6 c-14 -8 -18 -24 -18 -78
0 -60 -2 -69 -20 -74 -16 -4 -20 0 -20 18 0 12 7 28 15 35 8 7 15 21 15 31 0
11 -7 19 -15 19 -23 0 -18 36 8 48 30 14 59 16 35 1z m62 -3 c0 -16 -24 -38
-33 -30 -7 7 14 44 25 44 5 0 8 -6 8 -14z m-498 -3 c-10 -4 -10 -8 -1 -19 13
-16 6 -30 -10 -19 -18 11 -13 45 7 44 11 0 12 -2 4 -6z m331 -82 c10 -11 9
-13 -3 -9 -10 3 -15 20 -16 54 -1 41 -1 43 3 9 3 -22 10 -46 16 -54z m-269 73
c20 -8 21 -34 1 -34 -19 0 -19 -21 0 -46 20 -26 20 -58 -1 -50 -9 3 -18 6 -20
6 -2 0 -4 29 -4 65 0 36 2 65 4 65 2 0 11 -3 20 -6z m389 -15 c4 -16 11 -20
27 -16 l21 5 -22 -36 c-44 -73 -49 -73 -49 1 0 65 12 89 23 46z m-423 -46 l0
-58 -22 34 c-20 30 -20 34 -5 43 9 5 17 16 17 23 0 8 2 15 5 15 3 0 5 -26 5
-57z m667 50 c-3 -5 -51 -89 -107 -188 -113 -198 -108 -191 -116 -183 -3 3 33
74 80 157 47 83 85 155 84 161 -2 5 11 21 27 34 32 27 39 31 32 19z m-617 -61
c0 -15 -2 -15 -10 -2 -13 20 -13 33 0 25 6 -3 10 -14 10 -23z m311 1 c-8 -15
-10 -15 -11 -2 0 17 10 32 18 25 2 -3 -1 -13 -7 -23z m-205 -30 c14 0 27 -3
30 -6 10 -10 -6 -27 -25 -27 -9 0 -26 -6 -36 -14 -27 -19 -65 -1 -65 31 0 18
5 23 24 23 14 0 28 6 33 13 6 9 8 8 11 -4 2 -10 13 -16 28 -16z m182 -21 c5
-30 -45 -55 -59 -29 -6 9 -21 17 -34 17 -16 0 -25 6 -25 15 0 9 9 15 25 15 14
0 25 4 25 9 0 5 15 6 33 2 23 -5 33 -13 35 -29z m-477 -177 c57 -98 106 -173
118 -179 21 -9 29 -26 12 -26 -22 0 -64 48 -107 124 -26 47 -52 84 -58 83 -26
-5 -23 -26 13 -92 96 -175 122 -227 119 -237 -4 -10 -208 350 -208 366 0 4 12
-1 27 -11 26 -17 53 -26 53 -16 0 13 -82 142 -92 146 -21 7 -38 -4 -38 -24 0
-21 16 -26 23 -6 3 9 8 9 16 1 9 -8 8 -14 -3 -23 -21 -18 -56 3 -56 33 0 31 9
37 49 34 34 -3 38 -7 132 -173z m867 143 c4 -33 -30 -57 -54 -37 -11 9 -12 15
-3 23 8 8 13 8 16 -1 7 -20 23 -15 23 6 0 24 -13 33 -34 25 -22 -8 -79 -111
-70 -125 4 -7 3 -9 -3 -6 -7 4 -35 -35 -67 -93 -54 -95 -93 -140 -122 -140
-24 0 -15 15 16 27 17 6 30 17 30 24 0 8 -6 7 -18 -4 -28 -26 -42 -21 -42 16
1 26 2 29 11 15 6 -11 20 -17 35 -16 20 2 35 21 81 103 122 218 121 216 162
213 31 -3 36 -7 39 -30z m-678 -4 c0 -7 12 -15 28 -17 19 -3 16 -4 -14 -6 -36
-1 -42 2 -46 23 -4 19 -1 22 14 18 10 -2 18 -10 18 -18z m167 10 c-3 -3 -12
-4 -19 -1 -8 3 -5 6 6 6 11 1 17 -2 13 -5z m173 -9 c0 -8 -9 -15 -20 -15 -22
0 -27 15 -7 23 21 9 27 7 27 -8z m-250 -10 c0 -8 -4 -15 -8 -15 -5 0 -9 7 -9
15 0 8 4 15 9 15 4 0 8 -7 8 -15z m140 -6 c0 -5 -4 -9 -10 -9 -5 0 -10 7 -10
16 0 8 5 12 10 9 6 -3 10 -10 10 -16z m156 -9 c13 0 13 -4 -3 -30 -18 -31 -29
-37 -35 -20 -1 5 -23 11 -47 13 -47 3 -71 27 -28 27 14 0 34 3 44 6 16 6 16 5
-2 -9 -23 -19 -13 -22 16 -7 10 6 19 21 19 33 1 20 2 20 11 5 5 -10 17 -18 25
-18z m-109 4 c-3 -3 -12 -4 -19 -1 -8 3 -5 6 6 6 11 1 17 -2 13 -5z m-233 -29
c-8 -19 -15 -19 -40 0 -18 14 -17 14 13 15 25 0 31 -4 27 -15z m40 0 c3 -9 0
-15 -9 -15 -8 0 -15 7 -15 15 0 8 4 15 9 15 5 0 11 -7 15 -15z m43 -7 c-3 -8
-6 -5 -6 6 -1 11 2 17 5 13 3 -3 4 -12 1 -19z m113 1 c0 -5 -7 -9 -15 -9 -15
0 -20 12 -9 23 8 8 24 -1 24 -14z m-222 -26 c-10 -2 -28 -2 -40 0 -13 2 -5 4
17 4 22 1 32 -1 23 -4z m310 0 c-10 -2 -28 -2 -40 0 -13 2 -5 4 17 4 22 1 32
-1 23 -4z m-381 -19 c-3 -3 -12 -4 -19 -1 -8 3 -5 6 6 6 11 1 17 -2 13 -5z
m53 -40 c0 -27 -4 -34 -20 -34 -20 0 -27 30 -14 64 10 26 34 6 34 -30z m45 -9
c0 -39 -4 -50 -17 -53 -15 -3 -18 5 -18 53 0 48 3 56 18 53 13 -3 17 -14 17
-53z m20 -52 c-4 -17 -12 -23 -33 -22 l-27 1 25 7 c22 6 25 13 30 66 4 57 4
58 8 16 2 -25 1 -55 -3 -68z m225 41 c0 -41 -4 -54 -15 -54 -11 0 -15 13 -15
53 0 30 3 57 6 60 15 15 24 -8 24 -59z m223 -124 c-58 -104 -109 -190 -114
-190 -9 0 38 92 130 259 23 43 27 59 19 74 -5 11 -6 17 -1 14 5 -3 20 3 33 14
14 10 28 19 32 19 3 0 -41 -85 -99 -190z m-396 158 c-3 -8 -6 -5 -6 6 -1 11 2
17 5 13 3 -3 4 -12 1 -19z m133 -31 c0 -29 6 -59 13 -66 10 -10 9 -11 -5 -6
-11 4 -18 18 -19 34 0 14 -2 41 -3 59 -2 17 0 32 5 32 5 0 9 -24 9 -53z m110
27 c8 -19 15 -24 30 -19 11 3 20 3 20 -2 0 -15 -40 -73 -50 -73 -5 0 -11 26
-11 58 -1 33 -4 45 -6 27 -4 -28 -18 -44 -35 -45 -5 0 -8 18 -8 40 0 36 2 40
25 40 18 0 28 -7 35 -26z m-435 6 c3 -5 1 -10 -4 -10 -6 0 -11 5 -11 10 0 6 2
10 4 10 3 0 8 -4 11 -10z m239 -5 c3 -8 13 -15 23 -15 15 0 16 2 3 10 -8 5
-11 12 -7 17 5 4 12 1 17 -7 15 -24 12 -30 -16 -30 -14 0 -23 -4 -19 -10 3 -5
15 -10 26 -10 30 0 27 -57 -3 -62 -19 -2 -22 -8 -20 -35 2 -23 -1 -33 -10 -33
-10 0 -13 10 -10 35 4 33 3 35 -27 35 -28 0 -31 3 -31 30 0 25 4 30 24 30 35
0 43 20 9 21 -27 0 -27 1 -5 9 12 5 22 14 22 20 0 15 17 12 24 -5z m236 5 c0
-5 -7 -10 -16 -10 -8 0 -12 5 -9 10 3 6 10 10 16 10 5 0 9 -4 9 -10z m-567
-115 c37 -65 57 -90 85 -105 30 -15 33 -19 15 -20 -12 0 -28 -3 -36 -6 -11 -4
-30 23 -71 99 -31 57 -56 107 -56 111 0 21 21 -5 63 -79z m707 76 c0 -15 -111
-211 -118 -208 -4 2 -16 7 -26 11 -18 6 -17 8 10 25 17 11 47 50 74 99 41 74
60 97 60 73z m-547 -40 c3 -14 0 -19 -13 -18 -11 1 -15 7 -12 19 6 24 18 23
25 -1z m327 -6 c0 -8 -4 -15 -10 -15 -5 0 -7 7 -4 15 4 8 8 15 10 15 2 0 4 -7
4 -15z m-209 -35 c35 0 40 -29 9 -60 -11 -11 -20 -29 -20 -40 0 -11 -4 -20
-10 -20 -5 0 -19 -9 -31 -21 -18 -18 -25 -19 -46 -10 -40 18 -41 12 0 -10 20
-11 37 -22 37 -24 0 -3 -19 -5 -41 -5 -40 0 -41 1 -37 30 3 17 0 30 -6 30 -7
0 -7 3 -1 8 6 4 10 16 10 27 0 11 -4 23 -10 27 -5 4 0 8 13 8 18 0 22 -5 20
-22 -2 -13 -7 -29 -11 -35 -5 -9 -3 -13 7 -13 12 0 16 10 16 35 0 35 0 35 45
35 54 0 63 25 15 41 -35 13 -36 17 -12 35 14 10 18 10 20 -2 2 -8 15 -14 33
-14z m567 1 c4 -28 -21 -53 -44 -44 -16 6 -19 33 -4 33 6 0 10 -4 10 -10 0 -5
5 -10 10 -10 16 0 11 40 -6 47 -23 9 -34 -7 -124 -167 -44 -80 -88 -151 -97
-157 -20 -15 -73 -17 -73 -4 0 6 15 11 33 13 33 3 40 13 201 301 14 24 21 28
53 25 32 -2 39 -7 41 -27z m-442 -20 c-47 -18 -41 -35 12 -39 l42 -3 0 -44 c0
-24 -5 -45 -12 -47 -14 -5 -58 35 -58 53 0 7 -9 22 -19 33 -29 32 -31 60 -3
64 12 2 22 7 22 12 0 5 12 4 27 -3 l26 -12 -37 -14z m-238 -8 c-5 -29 -25 -25
-30 6 -4 27 -2 29 14 20 11 -6 18 -18 16 -26z m383 26 c11 -5 17 -14 14 -20
-9 -14 -25 -11 -25 5 0 8 -6 17 -12 19 -7 3 -9 6 -5 6 5 1 17 -4 28 -10z
m-441 -11 c0 -14 -18 -17 -28 -5 -8 10 -6 13 9 13 10 0 19 -4 19 -8z m398 -10
c-4 -29 -38 -38 -38 -10 0 19 11 29 33 31 5 1 7 -9 5 -21z m-254 -18 c7 -7 -4
-10 -32 -10 -35 0 -42 3 -42 19 0 17 4 18 32 10 17 -5 36 -13 42 -19z m204 8
c-5 -15 -68 -24 -68 -9 0 10 21 18 53 20 11 1 17 -4 15 -11z m-338 -20 c0 -10
-4 -18 -8 -18 -5 0 -16 8 -25 18 -14 16 -14 17 9 17 16 0 24 -6 24 -17z m387
-25 c0 -10 -4 -24 -10 -31 -8 -11 -5 -12 19 -7 22 5 25 4 14 -4 -12 -9 -9 -11
16 -11 36 0 45 -6 37 -26 -7 -18 -33 -18 -33 0 0 16 -45 30 -62 20 -7 -4 -8
-3 -4 4 4 7 2 12 -3 12 -6 0 -11 14 -11 30 0 22 5 30 18 30 11 0 19 -7 19 -17z
m-586 -57 c1 -6 1 -14 0 -18 0 -5 38 -76 85 -159 47 -83 83 -153 80 -157 -3
-3 -8 -3 -10 -1 -11 11 -216 372 -216 380 0 13 60 -32 61 -45z m458 32 c-1
-15 -3 -17 -6 -7 -3 11 -16 16 -43 16 -27 0 -40 -5 -43 -16 -3 -10 -5 -8 -6 7
-1 20 3 22 49 22 46 0 50 -2 49 -22z m305 -179 c-116 -202 -112 -195 -120
-187 -3 4 33 74 80 158 48 83 84 155 81 161 -4 5 9 23 27 39 18 17 34 26 36
22 1 -5 -45 -92 -104 -193z m-571 144 c-7 -2 -13 -11 -13 -19 0 -18 -26 -18
-33 0 -8 19 2 26 32 25 14 0 20 -3 14 -6z m133 -25 c-16 -22 -16 -22 -16 -1 0
12 6 23 13 26 19 7 20 0 3 -25z m168 1 c-3 -6 -7 -9 -8 -7 -1 2 -8 12 -16 22
-14 18 -14 19 8 7 12 -7 20 -17 16 -22z m96 -4 c0 -22 -4 -25 -40 -25 -48 0
-52 15 -7 34 44 20 47 19 47 -9z m-524 -52 c48 -89 71 -113 106 -113 15 0 28
-4 28 -10 0 -5 -10 -10 -23 -10 -13 0 -27 -4 -33 -10 -6 -6 -29 24 -67 90 -52
90 -65 120 -53 120 2 0 21 -30 42 -67z m144 37 c0 -29 2 -30 46 -30 45 0 45 0
42 -32 -4 -42 -38 -54 -38 -14 0 22 -5 27 -40 32 -25 4 -45 14 -51 25 -7 15
-6 19 6 19 8 0 15 7 15 15 0 8 5 15 10 15 6 0 10 -13 10 -30z m410 15 c0 -8 7
-15 15 -15 12 0 13 -4 6 -19 -7 -12 -27 -21 -56 -25 -36 -6 -45 -11 -45 -27 0
-10 -7 -19 -15 -19 -17 0 -22 59 -5 61 6 1 15 3 20 4 6 1 21 3 35 4 20 1 25 6
25 26 0 14 5 25 10 25 6 0 10 -7 10 -15z m121 -92 c-72 -125 -67 -119 -85
-104 -8 7 -24 10 -36 6 -14 -5 -20 -2 -20 9 0 11 10 16 33 16 44 1 57 13 107
104 24 44 46 74 48 68 2 -7 -19 -51 -47 -99z m-388 76 c5 -19 12 -21 61 -17
45 2 56 0 56 -12 0 -12 -14 -15 -70 -15 l-70 0 0 33 c0 36 15 43 23 11z m-404
-29 c10 -5 62 -89 116 -186 60 -108 106 -179 117 -182 22 -5 24 -22 3 -22 -26
0 -49 32 -144 203 -88 157 -114 189 -141 172 -15 -9 -12 -45 4 -45 8 0 16 6
19 13 2 6 8 9 12 5 12 -12 -3 -38 -23 -38 -24 0 -42 19 -42 47 0 35 42 53 79
33z m982 -9 c22 -18 22 -19 6 -45 -10 -14 -26 -26 -38 -26 -21 0 -37 26 -24
38 4 4 10 1 12 -5 3 -7 11 -13 19 -13 16 0 19 36 4 45 -24 15 -50 -11 -100
-103 -106 -192 -148 -258 -173 -269 -24 -11 -37 -8 -37 8 0 4 10 9 22 11 18 2
45 42 123 181 118 209 131 222 186 178z m-431 -1 c0 -5 -2 -10 -4 -10 -3 0 -8
5 -11 10 -3 6 -1 10 4 10 6 0 11 -4 11 -10z m-272 -43 c5 -37 -15 -34 -20 3
-3 19 -1 29 6 27 6 -2 12 -16 14 -30z m212 24 c0 -4 -12 -7 -27 -4 -24 3 -25
2 -8 -6 18 -9 18 -10 -6 -10 -16 -1 -26 4 -26 14 0 10 11 15 34 15 18 0 33 -4
33 -9z m149 -33 c-6 -26 -6 -51 0 -70 12 -33 11 -34 -17 -9 -26 22 -28 37 -6
58 8 9 13 24 11 34 -3 10 0 20 7 23 6 2 12 5 12 5 1 1 -2 -18 -7 -41z m-405 1
c-6 -11 -24 -2 -24 11 0 5 7 7 15 4 8 -4 12 -10 9 -15z m373 -11 c-3 -7 -5 -2
-5 12 0 14 2 19 5 13 2 -7 2 -19 0 -25z m83 17 c0 -2 -9 -9 -20 -15 -16 -9
-18 -8 -14 5 5 13 34 22 34 10z m-120 -45 c11 0 20 -7 20 -15 0 -11 -11 -15
-40 -15 -39 0 -40 1 -40 35 l0 35 20 -20 c11 -11 29 -20 40 -20z m6 25 c18
-15 18 -15 -5 -13 -14 2 -26 9 -29 16 -5 17 10 15 34 -3z m-294 -57 c-19 -19
-22 -20 -22 -5 0 9 5 17 10 17 6 0 10 8 10 17 0 13 3 14 12 5 10 -10 7 -17
-10 -34z m98 22 c0 -16 -7 -20 -35 -20 -43 0 -49 27 -7 33 15 2 30 5 35 6 4 0
7 -8 7 -19z m-15 -37 c-11 -3 -27 -11 -36 -19 -17 -15 -29 -9 -29 13 0 9 13
13 43 12 23 -1 33 -4 22 -6z m72 -70 c-2 -16 -4 -3 -4 27 0 30 2 43 4 28 2
-16 2 -40 0 -55z m60 0 c-2 -16 -4 -3 -4 27 0 30 2 43 4 28 2 -16 2 -40 0 -55z
m103 64 c0 -22 -12 -28 -29 -13 -9 8 -25 16 -36 19 -11 2 -1 5 23 6 29 1 42
-3 42 -12z m-350 -12 c0 -8 -4 -15 -10 -15 -5 0 -10 5 -10 12 0 9 -3 9 -12 -1
-15 -14 0 -28 74 -72 44 -26 45 -27 47 -84 2 -43 -1 -56 -11 -53 -7 3 -14 22
-16 44 -2 21 -9 45 -15 53 -10 11 -8 13 13 7 24 -7 24 -6 6 8 -22 18 -40 21
-32 7 4 -5 -7 -4 -24 2 -32 12 -43 30 -12 21 14 -5 14 -3 -2 10 -11 9 -23 16
-27 16 -11 0 -21 38 -14 50 10 16 45 12 45 -5z m449 1 c13 -16 -1 -56 -19 -56
-5 0 -7 -7 -4 -15 4 -8 1 -15 -6 -15 -6 0 -8 5 -5 10 10 15 -7 12 -38 -8 -15
-10 -24 -22 -20 -26 4 -4 1 -5 -7 -3 -8 2 -13 2 -10 0 12 -7 -3 -102 -16 -107
-18 -7 -20 74 -2 92 9 9 9 12 -2 12 -8 0 10 15 41 33 70 40 90 57 83 69 -4 5
-11 5 -18 -1 -17 -14 -29 -1 -15 16 15 17 24 17 38 -1z m-309 -41 c0 -25 -4
-45 -10 -45 -5 0 -10 20 -10 45 0 25 5 45 10 45 6 0 10 -20 10 -45z m17 -22
c-2 -16 -4 -5 -4 22 0 28 2 40 4 28 2 -13 2 -35 0 -50z m123 22 c0 -25 -4 -45
-10 -45 -5 0 -10 20 -10 45 0 25 5 45 10 45 6 0 10 -20 10 -45z m59 5 c9 0 22
5 29 12 9 9 12 8 12 -5 0 -17 -73 -61 -84 -50 -3 4 -6 22 -6 40 0 31 1 33 16
19 8 -9 23 -16 33 -16z m-274 0 c12 0 26 5 33 12 9 9 12 5 12 -20 0 -18 -5
-32 -11 -32 -19 0 -79 41 -79 53 0 8 4 7 12 -1 7 -7 21 -12 33 -12z m-15 -125
c0 -24 -5 -35 -15 -35 -10 0 -15 10 -15 29 0 16 -7 36 -15 45 -24 23 -18 28
15 11 25 -13 30 -22 30 -50z m83 58 c-24 -9 -13 -20 17 -15 36 5 60 -12 59
-42 -1 -18 -3 -17 -12 7 -16 40 -59 35 -68 -8 -6 -27 -7 -28 -8 -5 -1 14 -4
35 -7 48 -5 17 -2 22 12 21 11 0 14 -3 7 -6z m301 -12 c19 -21 3 -42 -17 -22
-8 8 -8 11 2 11 7 0 10 4 6 10 -13 22 -35 -3 -35 -41 0 -32 -3 -39 -20 -39
-16 0 -20 7 -20 33 0 25 7 36 28 49 34 22 35 22 56 -1z m-447 -27 c-9 -9 -28
6 -21 18 4 6 10 6 17 -1 6 -6 8 -13 4 -17z m283 17 c0 -4 -11 -6 -25 -3 -14 2
-25 6 -25 8 0 2 11 4 25 4 14 0 25 -4 25 -9z m-163 -78 c-2 -16 -4 -5 -4 22 0
28 2 40 4 28 2 -13 2 -35 0 -50z m-101 29 c-4 -26 -31 -25 -43 1 -10 22 -9 23
17 19 19 -3 27 -9 26 -20z m184 8 c0 -5 -7 -10 -15 -10 -8 0 -15 5 -15 10 0 6
7 10 15 10 8 0 15 -4 15 -10z m50 0 c0 -5 -4 -10 -10 -10 -5 0 -10 5 -10 10 0
6 5 10 10 10 6 0 10 -4 10 -10z m-63 -107 c-2 -16 -4 -3 -4 27 0 30 2 43 4 28
2 -16 2 -40 0 -55z m50 0 c-2 -16 -4 -5 -4 22 0 28 2 40 4 28 2 -13 2 -35 0
-50z m-20 -5 c-2 -13 -4 -3 -4 22 0 25 2 35 4 23 2 -13 2 -33 0 -45z m133 17
c0 -8 -7 -15 -15 -15 -26 0 -18 20 13 29 1 1 2 -6 2 -14z"/>
<path d="M888 2725 c-3 -6 -9 -38 -13 -72 -5 -46 -10 -60 -21 -56 -7 3 -12 10
-11 16 4 23 -36 12 -56 -15 -24 -32 -17 -77 13 -85 17 -5 20 -14 20 -64 0 -33
-4 -59 -10 -59 -6 0 -10 -72 -10 -196 0 -127 -3 -193 -10 -189 -23 14 -8 -13
23 -40 l32 -29 -30 -6 c-21 -4 -31 -12 -33 -28 -2 -12 2 -22 9 -22 8 0 8 -4
-2 -16 -11 -14 -11 -18 2 -28 9 -6 14 -16 12 -23 -2 -6 1 -14 7 -18 8 -5 8
-10 0 -20 -7 -8 -10 -53 -8 -116 3 -99 4 -104 26 -107 26 -4 20 -22 -9 -22
-18 0 -19 -8 -18 -145 l0 -145 90 0 89 0 0 145 0 145 -25 0 c-14 0 -25 4 -25
10 0 5 11 12 25 16 23 6 25 11 25 60 l0 54 40 0 c28 0 45 6 57 20 10 11 21 20
25 20 11 0 9 -103 -2 -160 -5 -26 -4 -47 1 -50 5 -3 3 -22 -3 -42 -9 -30 -8
-45 5 -80 25 -65 24 -68 -32 -61 -45 5 -50 3 -66 -20 -9 -14 -14 -34 -11 -44
5 -16 20 -18 135 -20 106 -2 132 1 142 13 10 12 10 20 1 35 -16 25 -15 50 3
73 8 11 15 31 15 45 0 14 5 33 10 41 9 13 11 13 20 0 5 -8 10 -25 10 -38 0
-12 7 -33 15 -46 10 -14 14 -41 13 -72 l-3 -49 135 0 135 1 3 26 c5 42 -23 61
-80 54 -55 -8 -57 -4 -31 62 13 35 14 52 6 83 -5 21 -7 40 -3 41 4 2 4 26 0
53 -5 28 -9 74 -9 104 l-1 54 25 -23 c22 -20 36 -24 100 -24 75 -1 75 -1 75
-28 0 -15 -4 -30 -10 -33 -6 -4 -10 5 -10 19 0 21 -5 26 -25 26 -23 0 -25 -3
-25 -49 0 -43 3 -50 22 -53 14 -2 22 -11 24 -28 1 -14 0 -19 -2 -12 -3 6 -14
12 -25 12 -17 0 -19 -8 -19 -89 l0 -89 59 -1 c57 0 60 1 64 27 l4 27 2 -28 c1
-23 5 -28 24 -25 21 3 22 7 22 93 0 86 -1 90 -22 93 -31 5 -29 22 2 22 l26 0
-3 107 -3 108 -60 23 c-33 12 -49 20 -35 17 14 -3 43 -9 64 -12 36 -6 39 -4
34 15 -4 13 0 23 8 26 16 6 19 36 4 36 -5 0 -7 -7 -4 -15 7 -18 11 -18 -54 -1
-30 8 -60 12 -68 9 -15 -5 -19 15 -6 32 9 12 17 14 83 17 36 2 54 -1 57 -10 3
-10 -9 -12 -55 -7 -44 5 -62 4 -70 -6 -16 -20 95 -25 121 -6 25 18 14 47 -18
47 -18 0 -23 4 -19 18 2 10 14 22 25 27 27 13 36 35 11 29 -17 -5 -18 6 -15
190 l2 196 -30 0 c-20 0 -30 -5 -30 -15 0 -10 -10 -15 -30 -15 -20 0 -30 5
-30 15 0 10 -10 15 -30 15 l-31 0 1 -222 c1 -123 -2 -244 -6 -270 -6 -45 -5
-47 27 -67 37 -23 35 -27 -7 -11 -21 8 -29 8 -36 -2 -5 -8 -8 -1 -8 19 0 26
-5 34 -25 39 -14 3 -22 10 -19 15 3 5 -19 9 -48 10 -45 0 -50 2 -30 11 12 6
22 18 23 27 0 10 3 8 9 -6 10 -24 34 -29 59 -14 9 6 12 24 10 60 -3 43 -1 51
14 51 9 0 17 7 17 15 0 11 -14 15 -57 16 -54 2 -55 2 -18 8 l40 6 3 55 c3 43
-1 57 -14 67 -11 8 -13 13 -5 13 8 0 11 12 9 38 -2 30 -7 38 -25 40 -13 2 -23
7 -23 12 0 5 10 10 23 12 18 2 23 10 25 44 2 31 -1 43 -14 48 -24 9 -46 -14
-41 -41 2 -13 0 -23 -4 -23 -5 0 -9 18 -9 40 0 22 4 40 9 40 16 0 22 33 8 47
-12 12 -16 12 -30 -1 -13 -13 -45 -16 -189 -16 -115 0 -178 4 -185 11 -6 6
-16 8 -22 5 -14 -9 -14 -46 -1 -46 6 0 10 -16 10 -35 0 -19 -5 -35 -11 -35 -5
0 -7 5 -4 10 12 20 -6 51 -28 48 -18 -2 -23 -11 -25 -45 -3 -40 -1 -43 22 -43
32 0 35 -27 4 -32 -19 -2 -24 -10 -26 -40 -3 -35 -1 -38 22 -38 28 0 47 37 26
50 -8 5 -8 10 -2 14 13 8 22 -17 22 -62 0 -28 -3 -33 -12 -24 -18 18 -56 14
-68 -7 -14 -27 -13 -74 3 -93 6 -9 26 -19 42 -21 18 -2 10 -5 -22 -6 -40 -1
-53 -5 -53 -16 0 -8 6 -15 13 -15 8 0 12 -17 12 -52 0 -51 1 -53 29 -56 31 -4
46 10 46 46 0 13 -6 22 -15 22 -8 0 -15 -9 -15 -20 0 -11 -4 -20 -10 -20 -5 0
-10 11 -10 25 0 21 5 25 30 25 28 0 30 -3 30 -35 0 -25 6 -38 23 -49 33 -20
75 -28 96 -17 12 7 22 6 30 -2 9 -9 16 -9 31 1 14 8 26 9 38 3 9 -5 44 -7 77
-5 51 4 58 2 45 -10 -10 -9 -54 -16 -141 -20 -118 -6 -126 -6 -144 14 -25 27
-111 30 -100 3 4 -10 9 -29 12 -43 2 -17 -1 -14 -9 9 -17 46 -34 49 -55 12
-19 -33 -41 -44 -23 -11 7 13 7 32 0 62 -6 24 -10 141 -10 261 1 171 -2 217
-12 217 -10 0 -12 16 -7 68 4 37 10 77 14 90 4 13 3 22 -3 22 -5 0 -12 11 -14
25 -6 28 3 32 22 9 18 -20 17 -74 -1 -85 -10 -6 -11 -9 -1 -9 7 0 17 11 24 25
20 44 -26 112 -62 90 -6 -4 -8 -10 -5 -15 3 -4 -2 -10 -10 -14 -12 -4 -15 4
-16 42 -1 55 -12 101 -21 87z m12 -202 c0 -80 -2 -144 -5 -141 -9 8 -9 288 0
288 3 0 5 -66 5 -147z m-78 72 c-2 -14 -9 -25 -14 -25 -6 0 -7 -11 -4 -25 4
-14 2 -25 -4 -25 -5 0 -10 18 -10 40 0 33 12 53 36 60 1 0 -1 -11 -4 -25z m38
-161 c0 -15 -6 -24 -15 -24 -10 0 -15 10 -15 30 0 22 4 28 15 24 8 -4 15 -17
15 -30z m90 6 c0 -20 -5 -30 -15 -30 -15 0 -21 40 -8 53 14 15 23 6 23 -23z
m175 10 c4 -6 78 -10 191 -10 116 0 184 4 184 10 0 6 7 10 16 10 9 0 14 -6 12
-12 -4 -10 -58 -14 -206 -18 -111 -3 -207 -3 -212 -2 -13 5 -13 32 -1 32 6 0
13 -4 16 -10z m198 -60 c4 -15 0 -20 -14 -20 -21 0 -22 1 -13 24 8 22 21 20
27 -4z m-433 -20 c10 0 21 8 24 18 4 13 4 13 3 -3 -2 -14 -11 -21 -30 -23 -23
-3 -27 0 -26 20 1 17 3 18 6 6 2 -10 13 -18 23 -18z m183 23 c-9 -3 -10 -10
-3 -24 7 -13 7 -19 0 -19 -5 0 -10 4 -10 9 0 5 -3 16 -6 25 -4 11 -1 16 12 15
11 0 14 -3 7 -6z m69 -1 c-10 -7 -8 -12 7 -26 10 -9 25 -16 32 -14 9 2 15 -7
17 -24 2 -16 -2 -28 -8 -28 -6 0 -8 10 -4 28 6 24 5 25 -7 10 -21 -27 -59 -13
-59 21 0 30 7 41 24 41 6 0 6 -4 -2 -8z m91 1 c-7 -2 -19 -2 -25 0 -7 3 -2 5
12 5 14 0 19 -2 13 -5z m133 -11 c-10 -2 -22 0 -28 6 -6 6 0 7 19 4 21 -5 23
-7 9 -10z m57 11 c-7 -2 -19 -2 -25 0 -7 3 -2 5 12 5 14 0 19 -2 13 -5z m67 3
c0 -3 -4 -8 -10 -11 -5 -3 -10 -1 -10 4 0 6 5 11 10 11 6 0 10 -2 10 -4z m73
-26 c-3 -11 -10 -23 -16 -27 -5 -3 -8 -2 -5 3 3 5 8 17 11 27 9 24 16 22 10
-3z m-600 3 c-7 -2 -19 -2 -25 0 -7 3 -2 5 12 5 14 0 19 -2 13 -5z m345 -14
c46 -9 66 -17 74 -33 10 -18 9 -19 -4 -8 -13 10 -17 10 -21 0 -4 -9 -8 -10
-14 -2 -9 11 -52 12 -71 0 -7 -4 -12 -2 -12 4 0 7 -7 10 -15 6 -8 -3 -15 -1
-15 5 0 6 -6 7 -12 3 -8 -5 -8 -1 1 10 13 15 13 19 0 27 -11 8 -10 9 6 5 11
-3 48 -10 83 -17z m192 -9 c0 -25 -4 -30 -25 -30 -31 0 -33 23 -3 44 29 21 28
21 28 -14z m183 23 c-7 -2 -19 -2 -25 0 -7 3 -2 5 12 5 14 0 19 -2 13 -5z
m-298 -13 c7 -12 -2 -12 -30 0 -19 8 -19 9 2 9 12 1 25 -3 28 -9z m-545 -31
c0 -11 -7 -19 -16 -19 -11 0 -14 5 -10 16 3 9 6 20 6 25 0 6 5 7 10 4 6 -3 10
-15 10 -26z m68 14 c-10 -2 -26 -2 -35 0 -10 3 -2 5 17 5 19 0 27 -2 18 -5z
m56 -8 c3 -9 -1 -18 -10 -22 -19 -7 -26 0 -18 21 8 20 20 21 28 1z m711 -23
c-22 -5 -27 1 -19 23 7 17 8 17 21 -1 12 -17 12 -19 -2 -22z m85 28 c0 -5 -13
-10 -30 -10 -16 0 -30 5 -30 10 0 6 14 10 30 10 17 0 30 -4 30 -10z m44 -6 c9
-23 8 -24 -13 -24 -14 0 -18 5 -14 20 6 24 19 26 27 4z m-699 -4 c3 -6 -1 -7
-9 -4 -18 7 -21 14 -7 14 6 0 13 -4 16 -10z m303 -26 c-3 -14 -5 -12 -10 9 -3
19 -2 25 4 19 6 -6 8 -18 6 -28z m32 16 c9 -16 8 -20 -5 -20 -8 0 -15 9 -15
20 0 11 2 20 5 20 2 0 9 -9 15 -20z m125 10 c-3 -5 -18 -9 -33 -9 l-27 1 30 8
c17 4 31 8 33 9 2 0 0 -3 -3 -9z m-650 -10 c4 -6 7 -80 7 -165 1 -132 3 -157
17 -166 14 -9 14 -10 -2 -5 -10 3 -21 6 -23 6 -2 0 -4 18 -4 40 0 33 -3 40
-20 40 -16 0 -20 -7 -20 -35 0 -24 5 -35 15 -35 8 0 15 -4 15 -10 0 -5 -9 -6
-21 -2 -20 8 -21 14 -20 141 1 73 -2 131 -6 128 -4 -3 -8 -56 -7 -119 1 -62
-1 -116 -3 -120 -2 -4 -10 -5 -18 -1 -12 4 -15 29 -15 123 0 115 1 119 23 122
17 2 23 11 25 36 3 26 8 32 27 32 13 0 27 -5 30 -10z m223 -42 c1 -23 9 -52
17 -65 13 -20 14 -23 1 -23 -8 0 -20 -8 -26 -17 -7 -14 -10 3 -9 65 2 84 14
115 17 40z m622 -119 c0 -126 -3 -163 -14 -175 -8 -8 -17 -10 -20 -5 -3 5 1
11 9 15 9 3 15 19 15 41 0 28 -4 35 -19 35 -16 0 -20 -8 -23 -42 -2 -23 -7
-43 -13 -45 -7 -2 -8 54 -4 164 4 93 7 169 8 171 1 1 15 2 31 2 l30 0 0 -161z
m-390 131 c6 -10 9 -9 13 1 4 10 6 8 6 -4 1 -14 -4 -17 -18 -12 -11 3 -22 1
-26 -5 -3 -5 1 -10 9 -10 9 0 16 -7 16 -15 0 -8 -7 -15 -15 -15 -8 0 -15 -4
-15 -10 0 -5 10 -10 23 -10 12 0 28 -4 35 -9 10 -6 9 -10 -7 -14 -17 -4 -21
-13 -22 -49 0 -23 -3 -36 -6 -28 -9 22 -25 30 -43 20 -9 -5 -22 -5 -30 0 -9 5
-19 5 -27 -2 -10 -8 -13 -6 -13 6 0 10 -5 27 -12 39 -17 30 -18 46 -6 54 7 3
8 1 4 -6 -10 -16 21 -26 39 -11 21 18 19 29 -5 23 -14 -4 -20 0 -20 11 0 10 9
16 23 16 22 1 22 1 -3 15 -19 10 -27 10 -32 2 -5 -7 -8 -8 -8 -1 0 22 24 31
77 29 31 -1 59 -8 63 -15z m-195 -10 c3 -6 -1 -7 -9 -4 -18 7 -21 14 -7 14 6
0 13 -4 16 -10z m291 -5 c-11 -8 -27 -15 -35 -15 -9 1 -2 7 14 15 39 18 44 18
21 0z m329 -3 c-3 -3 -11 0 -18 7 -9 10 -8 11 6 5 10 -3 15 -9 12 -12z m-296
-69 c-1 -66 -2 -73 -10 -45 -5 17 -14 32 -20 32 -6 0 -3 10 5 22 9 12 16 33
16 45 0 13 2 23 5 23 3 0 5 -35 4 -77z m31 57 c-7 -13 -7 -26 -1 -38 6 -12 5
-23 -5 -37 -14 -18 -15 -15 -13 38 2 40 6 57 16 57 11 0 11 -5 3 -20z m-560
-135 c0 -115 -2 -134 -15 -129 -12 5 -15 30 -15 135 0 108 2 129 15 129 13 0
15 -22 15 -135z m227 108 c16 3 21 1 15 -5 -14 -14 -47 -6 -48 12 -1 11 0 11
3 2 3 -9 14 -12 30 -9z m232 -3 c9 0 23 6 30 13 11 10 11 8 2 -10 -6 -13 -17
-23 -24 -23 -18 0 -37 21 -36 40 1 11 2 11 6 -2 2 -10 12 -18 22 -18z m131 15
c0 -8 -2 -15 -4 -15 -2 0 -6 7 -10 15 -3 8 -1 15 4 15 6 0 10 -7 10 -15z m118
-117 c-2 -94 -7 -133 -15 -136 -10 -3 -13 28 -13 132 0 115 2 136 15 136 13 0
15 -19 13 -132z m122 7 c0 -104 -2 -125 -15 -125 -13 0 -15 21 -15 125 0 104
2 125 15 125 13 0 15 -21 15 -125z m-711 23 c-1 -28 -2 -30 -7 -10 -4 13 -11
23 -17 23 -12 0 -24 -40 -17 -58 2 -7 17 -13 33 -13 16 0 29 -4 29 -10 0 -15
-56 -12 -70 5 -7 9 -9 26 -5 47 10 44 13 48 36 48 15 0 19 -7 18 -32z m486
-23 c0 -49 -1 -50 -32 -53 -19 -2 -33 1 -33 7 0 6 14 11 30 11 27 0 30 3 30
33 0 40 -8 51 -27 36 -10 -9 -13 -8 -13 5 0 12 7 16 23 14 19 -3 22 -9 22 -53z
m-479 -11 c8 3 12 2 9 -4 -3 -6 -15 -10 -26 -10 -14 0 -19 7 -18 28 0 27 0 27
10 3 6 -15 14 -21 25 -17z m339 27 c3 -5 1 -12 -5 -16 -5 -3 -10 1 -10 9 0 18
6 21 15 7z m125 -16 c0 -20 -5 -25 -25 -25 -14 0 -25 4 -25 10 0 5 7 7 16 3
10 -4 17 1 21 16 7 28 13 27 13 -4z m-363 -31 c-3 -3 -12 -4 -19 -1 -8 3 -5 6
6 6 11 1 17 -2 13 -5z m103 -4 c0 -5 -4 -10 -10 -10 -5 0 -10 5 -10 10 0 6 5
10 10 10 6 0 10 -4 10 -10z m30 0 c0 -5 -4 -10 -10 -10 -5 0 -10 5 -10 10 0 6
5 10 10 10 6 0 10 -4 10 -10z m36 -19 c135 2 125 5 118 -41 -4 -27 -3 -40 5
-40 6 0 11 -16 11 -35 0 -29 -5 -37 -26 -45 -47 -18 -78 -12 -92 17 -9 20 -9
24 0 15 7 -7 24 -12 40 -12 31 0 48 24 48 69 0 51 -27 61 -167 61 -115 0 -123
-1 -137 -22 -9 -12 -16 -32 -16 -43 0 -31 28 -65 54 -65 28 0 46 18 39 39 -3
10 -2 12 4 5 11 -16 58 -30 49 -15 -5 7 1 11 14 11 12 0 19 -4 15 -9 -3 -5 3
-12 14 -16 23 -7 35 -35 22 -48 -14 -14 -41 10 -41 34 0 11 -4 19 -10 19 -5 0
-10 -11 -10 -24 0 -30 -17 -43 -33 -26 -9 10 -9 11 1 6 16 -10 28 22 13 37 -8
8 -18 3 -40 -21 -29 -31 -30 -31 -73 -19 -40 12 -43 16 -46 50 -2 20 1 37 6
37 6 0 8 17 5 40 -6 44 -9 42 70 42 30 -1 47 3 47 11 0 9 2 9 8 0 6 -9 38 -12
108 -12z m-466 -46 c0 -14 -4 -25 -10 -25 -5 0 -10 11 -10 25 0 14 5 25 10 25
6 0 10 -11 10 -25z m414 -5 c14 0 26 -4 26 -10 0 -5 -13 -10 -28 -10 -22 0
-32 7 -41 28 -10 23 -10 25 2 10 8 -10 26 -18 41 -18z m426 6 c0 -14 -4 -28
-10 -31 -6 -4 -10 7 -10 24 0 17 5 31 10 31 6 0 10 -11 10 -24z m-657 7 c-13
-2 -35 -2 -50 0 -16 2 -5 4 22 4 28 0 40 -2 28 -4z m130 -15 c14 3 18 -1 15
-14 -5 -30 -26 -27 -43 8 -9 19 -10 26 -3 18 7 -9 21 -14 31 -12z m110 15 c-7
-2 -19 -2 -25 0 -7 3 -2 5 12 5 14 0 19 -2 13 -5z m270 0 c-13 -2 -35 -2 -50
0 -16 2 -5 4 22 4 28 0 40 -2 28 -4z m-157 -18 c-3 -8 -1 -26 4 -40 12 -31 2
-37 -30 -19 -19 11 -20 14 -6 12 10 -2 21 3 23 10 3 7 1 12 -4 11 -21 -4 -33
2 -33 17 0 11 6 15 20 11 11 -3 20 -1 20 4 0 5 3 9 6 9 3 0 4 -7 0 -15z m61
-7 c-3 -8 -6 -5 -6 6 -1 11 2 17 5 13 3 -3 4 -12 1 -19z m-417 -7 c-31 -5 -35
-10 -38 -38 -4 -37 19 -46 38 -15 10 15 10 15 8 -3 -2 -14 -11 -20 -28 -20
-20 0 -26 6 -28 28 -5 46 4 57 45 56 l38 -2 -35 -6z m498 -38 c2 -34 0 -43
-12 -43 -9 0 -19 0 -23 -1 -4 0 -9 4 -11 9 -2 6 6 8 18 5 19 -5 21 -2 18 28
-2 28 -8 35 -33 41 -29 6 -29 6 5 5 34 -2 35 -4 38 -44z m-255 20 c-7 -2 -19
-2 -25 0 -7 3 -2 5 12 5 14 0 19 -2 13 -5z m234 -23 c1 -14 0 -18 -3 -7 -3 9
-14 17 -25 17 -10 0 -19 5 -19 11 0 6 10 9 23 7 15 -2 23 -10 24 -28z m-697
10 c12 -8 12 -10 -5 -9 -11 0 -29 4 -40 9 -18 8 -18 9 5 9 14 0 32 -4 40 -9z
m356 -3 c8 3 14 3 14 0 0 -14 -30 -14 -41 1 -11 14 -11 15 0 5 7 -6 20 -9 27
-6z m603 9 c-2 -2 -22 -9 -44 -15 -36 -9 -38 -9 -21 4 17 13 77 23 65 11z
m-840 -74 c9 -42 8 -49 -10 -64 -20 -17 -59 -31 -129 -44 -56 -12 -26 12 39
30 66 19 78 34 56 77 -13 24 -22 29 -53 30 -22 1 -28 3 -15 6 12 2 27 10 33
18 8 10 18 11 40 4 23 -9 31 -19 39 -57z m753 50 c7 -5 22 -12 33 -15 11 -2 1
-5 -21 -6 -37 -1 -43 -5 -54 -32 -9 -22 -10 -36 -3 -47 12 -20 60 -34 93 -27
19 4 21 3 10 -5 -13 -8 -13 -10 3 -10 9 0 17 -4 17 -10 0 -15 -20 -12 -93 10
-36 11 -68 27 -71 36 -8 20 4 93 16 100 6 4 6 9 -2 14 -6 4 5 6 24 5 20 -1 41
-7 48 -13z m-452 -22 c0 -5 -2 -10 -4 -10 -3 0 -8 5 -11 10 -3 6 -1 10 4 10 6
0 11 -4 11 -10z m-380 -32 c0 -5 -11 -8 -24 -8 -13 0 -38 -3 -55 -6 -23 -5
-31 -3 -31 7 0 10 15 14 55 14 30 0 55 -3 55 -7z m32 -42 c-3 -5 -9 -1 -12 10
-4 10 -5 23 -2 28 3 5 9 1 12 -10 4 -10 5 -23 2 -28z m228 4 c20 -18 37 -20
147 -20 110 0 125 2 143 20 12 12 33 20 53 20 52 0 58 -9 43 -60 -12 -42 -16
-45 -50 -48 -21 -2 -51 1 -67 7 -35 12 -59 5 -59 -17 0 -14 -2 -13 -13 2 -9
13 -23 17 -52 14 -36 -3 -40 -6 -43 -33 -8 -91 -24 -124 -34 -70 -5 26 6 35
15 13 3 -7 6 8 6 34 1 37 -3 50 -18 58 -25 13 -49 3 -46 -18 1 -9 0 -11 -2 -5
-5 16 -42 26 -74 21 -15 -2 -25 3 -27 12 -2 13 26 15 215 12 197 -3 219 -1
230 15 7 9 13 26 13 37 -1 16 -4 13 -15 -11 l-14 -33 -211 0 c-200 0 -210 1
-210 19 0 11 -3 26 -6 35 -9 24 47 21 76 -4z m-250 5 c0 -3 -21 -10 -46 -16
-31 -8 -41 -14 -32 -20 7 -5 8 -9 2 -9 -5 0 -19 6 -30 14 -21 16 -25 13 51 29
30 7 55 8 55 2z m146 -32 c12 -52 32 -73 69 -73 23 0 35 -5 35 -14 0 -8 8 -17
17 -20 12 -5 14 -9 6 -14 -8 -5 -11 -31 -10 -70 2 -62 2 -62 -25 -62 -27 0
-28 1 -28 58 0 31 -5 64 -10 72 -8 13 -13 11 -32 -11 -18 -21 -35 -28 -78 -33
-30 -3 -60 -2 -66 2 -6 4 -14 31 -18 60 l-7 53 37 15 c30 13 38 13 45 2 5 -7
9 -16 9 -20 0 -5 5 -8 10 -8 6 0 10 20 10 45 0 52 25 64 36 18z m542 -26 c2
-26 7 -47 13 -47 5 0 9 6 9 14 0 23 18 28 56 16 35 -12 35 -12 29 -58 -11 -78
-8 -76 -83 -68 -51 5 -71 12 -83 28 -25 32 -39 13 -39 -53 0 -59 0 -59 -29
-59 -24 0 -28 3 -24 20 3 11 0 26 -6 34 -8 10 -9 16 -1 21 16 10 12 45 -7 52
-14 5 -13 8 5 14 12 5 22 15 22 24 0 11 11 15 39 15 38 0 40 1 56 51 21 61 39
59 43 -4z m-698 -118 c0 -64 -3 -79 -15 -79 -12 0 -15 15 -15 78 0 43 3 82 6
85 17 16 24 -10 24 -84z m340 56 c0 -14 -2 -25 -4 -25 -2 0 -6 11 -8 25 -3 14
-1 25 3 25 5 0 9 -11 9 -25z m152 0 c-2 -14 -6 -25 -8 -25 -2 0 -4 11 -4 25 0
14 4 25 9 25 4 0 6 -11 3 -25z m48 4 c0 -5 -4 -9 -8 -9 -5 0 -9 7 -9 15 0 8 4
12 9 9 4 -3 8 -9 8 -15z m310 -59 c0 -64 -3 -80 -15 -80 -12 0 -15 16 -15 80
0 64 3 80 15 80 12 0 15 -16 15 -80z m-910 -20 c0 -73 -3 -90 -15 -90 -12 0
-15 16 -15 83 0 46 3 87 7 90 18 18 23 0 23 -83z m437 -52 c-2 -29 -3 -8 -3
47 0 55 1 79 3 53 2 -26 2 -71 0 -100z m30 110 c-3 -7 -5 -2 -5 12 0 14 2 19
5 13 2 -7 2 -19 0 -25z m38 -63 c0 -52 -3 -95 -7 -95 -5 0 -8 43 -8 95 0 52 3
95 8 95 4 0 7 -43 7 -95z m453 83 c18 -18 16 -168 -2 -168 -20 0 -26 23 -26
106 0 74 5 85 28 62z m-491 -80 c-3 -7 -5 -2 -5 12 0 14 2 19 5 13 2 -7 2 -19
0 -25z m81 6 c-7 -15 -14 -21 -16 -15 -5 16 5 41 17 41 7 0 6 -10 -1 -26z
m-531 -56 c-2 -13 -4 -5 -4 17 -1 22 1 32 4 23 2 -10 2 -28 0 -40z m75 12 c-2
-16 -8 -30 -13 -30 -5 0 -9 14 -9 30 0 18 5 30 13 30 9 0 12 -10 9 -30z m478
20 c0 -5 -5 -10 -11 -10 -5 0 -7 5 -4 10 3 6 8 10 11 10 2 0 4 -4 4 -10z
m-442 -43 c2 -19 -1 -27 -12 -27 -11 0 -16 10 -16 31 0 38 24 35 28 -4z m288
-12 l1 -45 -38 0 c-21 0 -41 5 -44 10 -3 6 3 10 14 10 13 0 21 7 21 17 0 15 2
14 15 -3 17 -23 19 -15 5 21 -9 23 -8 26 5 21 8 -3 15 -1 15 4 0 6 1 10 3 10
1 0 2 -20 3 -45z m51 -12 c-3 -10 -5 -2 -5 17 0 19 2 27 5 18 2 -10 2 -26 0
-35z m78 15 c-3 -18 -3 -27 1 -20 3 6 10 12 15 12 6 0 7 -4 4 -10 -5 -8 31
-15 58 -11 9 1 9 -3 1 -23 -5 -12 -19 -16 -63 -14 l-56 2 53 3 c28 2 52 7 52
11 0 4 -21 5 -46 3 l-46 -3 7 33 c12 57 28 70 20 17z m295 7 c0 -16 -6 -25
-15 -25 -9 0 -15 9 -15 25 0 16 6 25 15 25 9 0 15 -9 15 -25z m-777 -33 c-2
-6 6 -12 17 -12 17 0 18 -3 8 -13 -9 -10 -24 -11 -57 -5 -53 10 -65 18 -27 18
21 0 27 4 22 16 -4 12 0 15 17 12 12 -2 21 -9 20 -16z m847 -1 c5 -11 10 -23
10 -28 0 -9 -46 -9 -70 0 -40 15 -42 17 -11 12 26 -4 32 -2 28 9 -5 13 5 23
25 25 4 1 12 -8 18 -18z m50 -11 c0 -5 -4 -10 -10 -10 -5 0 -10 5 -10 10 0 6
5 10 10 10 6 0 10 -4 10 -10z m-485 -24 c17 -1 -12 -4 -62 -4 -51 -1 -93 1
-93 6 0 6 83 6 155 -2z m-406 -25 c12 -21 -7 -35 -34 -25 -17 7 -17 7 -9 28 8
22 31 20 43 -3z m843 1 c6 -23 -24 -46 -40 -30 -15 15 -2 48 18 48 10 0 20 -8
22 -18z m-909 -9 c-7 -2 -19 -2 -25 0 -7 3 -2 5 12 5 14 0 19 -2 13 -5z m114
1 c-3 -3 -12 -4 -19 -1 -8 3 -5 6 6 6 11 1 17 -2 13 -5z m510 0 c-3 -3 -12 -4
-19 -1 -8 3 -5 6 6 6 11 1 17 -2 13 -5z m333 2 c0 -2 -7 -6 -15 -10 -8 -3 -15
-1 -15 4 0 6 7 10 15 10 8 0 15 -2 15 -4z m-921 -59 c0 -21 -1 -21 -9 -2 -12
28 -12 37 0 30 6 -3 10 -16 9 -28z m32 2 c-9 -22 -10 -22 -10 -3 -1 11 2 24 6
27 12 12 14 0 4 -24z m382 11 c-4 -29 -21 -95 -28 -112 -6 -15 -20 -18 -70
-18 l-63 0 -16 40 c-19 47 -19 51 -6 85 10 25 11 26 97 23 72 -2 88 -6 86 -18z
m218 -7 c8 -21 7 -40 -3 -73 l-14 -45 -62 -2 c-56 -1 -64 1 -78 22 -9 13 -14
32 -13 42 2 10 -3 28 -9 41 -7 12 -10 27 -7 32 3 6 44 10 91 10 83 0 85 -1 95
-27z m209 -4 c0 -10 -4 -19 -10 -19 -5 0 -10 12 -10 26 0 14 4 23 10 19 6 -3
10 -15 10 -26z m32 4 c-3 -16 -7 -22 -10 -15 -4 13 4 42 11 42 2 0 2 -12 -1
-27z m-925 -3 c9 -11 8 -20 -3 -34 -13 -18 -14 -17 -14 19 0 21 1 36 3 34 1
-2 8 -11 14 -19z m134 -103 c-17 -17 -27 2 -13 23 15 25 15 47 0 54 -10 5 -10
7 0 12 6 3 13 13 14 22 1 10 3 -10 5 -42 2 -33 -1 -64 -6 -69z m700 66 c-9
-15 -10 -12 -10 17 0 29 1 32 10 18 7 -12 7 -24 0 -35z m106 15 c-3 -8 -6 -5
-6 6 -1 11 2 17 5 13 3 -3 4 -12 1 -19z m33 0 c0 -16 -3 -19 -11 -11 -6 6 -8
16 -5 22 11 17 16 13 16 -11z m-68 -20 c-7 -7 -12 -25 -12 -40 0 -15 -4 -28
-10 -28 -5 0 -10 16 -10 36 0 21 4 33 10 29 6 -3 10 -1 10 4 0 6 5 11 12 11 9
0 9 -3 0 -12z m-854 -44 c-3 -27 -4 -26 -9 8 -3 22 -1 34 4 29 5 -5 7 -21 5
-37z m33 9 c-4 -28 -6 -32 -9 -15 -3 22 3 52 11 52 1 0 1 -17 -2 -37z m864 27
c3 -6 -1 -7 -9 -4 -12 5 -16 -1 -17 -27 -1 -25 -3 -28 -6 -11 -8 40 15 70 32
42z m-940 -49 c-10 -16 -25 -3 -25 22 0 20 1 20 16 5 9 -9 13 -21 9 -27z m839
-3 c-11 -17 -24 -6 -24 19 0 26 1 26 14 8 8 -11 12 -23 10 -27z m122 -5 c-11
-11 -19 6 -11 24 8 17 8 17 12 0 3 -10 2 -21 -1 -24z m-826 -63 l0 -40 -80 0
-80 0 0 40 0 40 80 0 80 0 0 -40z m253 23 c-18 -2 -48 -2 -65 0 -18 2 -4 4 32
4 36 0 50 -2 33 -4z m240 0 c-18 -2 -48 -2 -65 0 -18 2 -4 4 32 4 36 0 50 -2
33 -4z m-433 -18 c-7 -9 -15 -13 -17 -11 -7 7 7 26 19 26 6 0 6 -6 -2 -15z
m580 0 c6 -8 10 -22 7 -32 -4 -14 -5 -14 -6 4 0 12 -9 27 -18 32 -10 6 -13 11
-7 11 6 0 17 -7 24 -15z m-235 -29 c0 -15 -4 -21 -9 -16 -5 5 -6 16 -3 24 9
22 12 20 12 -8z m-230 4 c3 -6 -1 -7 -9 -4 -18 7 -21 14 -7 14 6 0 13 -4 16
-10z m45 -10 c-6 -11 -21 -20 -33 -20 -20 1 -20 2 -4 11 9 6 15 14 12 20 -4 5
3 9 15 9 18 0 19 -3 10 -20z m80 6 c0 -8 -4 -18 -10 -21 -5 -3 -10 3 -10 14 0
12 5 21 10 21 6 0 10 -6 10 -14z m206 2 c4 -7 3 -8 -4 -4 -7 4 -12 3 -12 -3 0
-5 8 -12 18 -14 14 -4 13 -5 -4 -6 -11 0 -29 8 -39 19 -18 20 -17 20 8 20 14
0 29 -5 33 -12z m-246 -18 c0 -5 -4 -10 -10 -10 -5 0 -10 5 -10 10 0 6 5 10
10 10 6 0 10 -4 10 -10z m185 0 c3 -5 2 -10 -4 -10 -5 0 -13 5 -16 10 -3 6 -2
10 4 10 5 0 13 -4 16 -10z m172 4 c-3 -3 -12 -4 -19 -1 -8 3 -5 6 6 6 11 1 17
-2 13 -5z"/>
<path d="M1236 2352 c-3 -6 2 -8 13 -5 10 3 29 -1 41 -7 15 -8 25 -9 33 -1 7
7 4 10 -9 10 -10 0 -31 3 -45 6 -15 4 -29 2 -33 -3z"/>
<path d="M870 2278 c0 -31 4 -38 20 -38 17 0 20 7 20 39 0 34 -3 40 -20 38
-16 -1 -20 -8 -20 -39z m30 -3 c0 -14 -4 -25 -10 -25 -5 0 -10 11 -10 25 0 14
5 25 10 25 6 0 10 -11 10 -25z"/>
<path d="M870 2195 c0 -28 4 -35 20 -35 16 0 20 7 20 35 0 28 -4 35 -20 35
-16 0 -20 -7 -20 -35z m30 0 c0 -14 -4 -25 -10 -25 -5 0 -10 11 -10 25 0 14 5
25 10 25 6 0 10 -11 10 -25z"/>
<path d="M870 2115 c0 -28 4 -35 20 -35 16 0 20 7 20 35 0 28 -4 35 -20 35
-16 0 -20 -7 -20 -35z m30 0 c0 -14 -4 -25 -10 -25 -5 0 -10 11 -10 25 0 14 5
25 10 25 6 0 10 -11 10 -25z"/>
<path d="M1710 2275 c0 -28 4 -35 20 -35 16 0 20 7 20 35 0 28 -4 35 -20 35
-16 0 -20 -7 -20 -35z m30 0 c0 -14 -4 -25 -10 -25 -5 0 -10 11 -10 25 0 14 5
25 10 25 6 0 10 -11 10 -25z"/>
<path d="M1710 2155 c0 -68 2 -75 19 -75 18 0 20 7 20 75 0 68 -2 75 -20 75
-17 0 -19 -7 -19 -75z m30 34 c0 -10 -4 -19 -10 -19 -5 0 -10 12 -10 26 0 14
4 23 10 19 6 -3 10 -15 10 -26z m0 -74 c0 -14 -4 -25 -10 -25 -5 0 -10 11 -10
25 0 14 5 25 10 25 6 0 10 -11 10 -25z"/>
<path d="M1330 1936 c0 -17 16 -30 23 -19 3 5 -1 14 -9 21 -12 10 -14 10 -14
-2z"/>
<path d="M1716 2707 c-3 -12 -6 -93 -6 -179 0 -134 2 -158 15 -158 13 0 15 26
15 174 0 161 -9 220 -24 163z m11 -249 c-1 -46 -3 -11 -3 77 0 88 2 125 3 83
2 -42 2 -114 0 -160z"/>
<path d="M1630 2610 c-33 -33 -22 -110 14 -97 14 5 16 -3 16 -53 0 -53 2 -60
20 -60 19 0 20 7 20 100 0 60 -4 100 -10 100 -5 0 -10 7 -10 15 0 21 -26 19
-50 -5z m22 -24 c-13 -22 -17 -37 -10 -44 6 -6 6 -12 -1 -16 -19 -12 -24 42
-7 69 25 38 41 30 18 -9z m38 -146 c0 -16 -4 -30 -10 -30 -5 0 -10 14 -10 30
0 17 5 30 10 30 6 0 10 -13 10 -30z"/>
<path d="M1775 2620 c-3 -5 -3 -10 2 -10 4 0 0 -5 -9 -11 -15 -8 -18 -25 -18
-104 0 -93 1 -95 23 -95 21 0 23 4 22 51 -1 45 1 52 22 60 33 12 33 81 1 103
-26 19 -35 20 -43 6z m55 -61 c0 -15 -5 -31 -12 -35 -8 -5 -9 -2 -5 9 3 9 0
29 -8 44 -21 39 -19 49 5 28 11 -10 20 -31 20 -46z m-50 -125 c0 -13 -4 -24
-10 -24 -5 0 -10 14 -10 31 0 17 4 28 10 24 6 -3 10 -17 10 -31z"/>
<path d="M1640 1280 l0 -50 90 0 90 0 0 50 0 50 -90 0 -90 0 0 -50z m160 0 l0
-40 -75 0 -75 0 0 40 0 40 75 0 75 0 0 -40z"/>
<path d="M2332 3283 c4 -175 14 -210 68 -238 42 -22 137 -20 177 5 56 34 63
61 63 235 l0 155 -24 0 -25 0 -3 -156 -3 -156 -28 -24 c-47 -40 -133 -28 -156
23 -6 14 -11 84 -11 168 l0 145 -31 0 -31 0 4 -157z"/>
<path d="M3180 3415 c0 -20 5 -25 25 -25 20 0 25 5 25 25 0 20 -5 25 -25 25
-20 0 -25 -5 -25 -25z"/>
<path d="M4680 3415 c0 -20 5 -25 25 -25 20 0 25 5 25 25 0 20 -5 25 -25 25
-20 0 -25 -5 -25 -25z"/>
<path d="M5080 3369 l0 -70 -26 20 c-56 44 -143 18 -175 -52 -24 -53 -24 -111
0 -164 32 -70 119 -96 175 -52 21 17 26 18 26 5 0 -10 9 -16 25 -16 l25 0 0
200 0 200 -25 0 c-24 0 -25 -2 -25 -71z m-47 -80 c32 -14 47 -49 47 -104 0
-58 -16 -91 -51 -105 -40 -17 -80 -1 -101 41 -22 42 -23 78 -3 124 20 48 62
65 108 44z"/>
<path d="M5850 3369 l0 -70 -26 20 c-51 40 -138 19 -171 -42 -23 -43 -23 -141
0 -184 33 -61 120 -82 171 -42 21 17 26 18 26 5 0 -10 9 -16 25 -16 l25 0 0
200 0 200 -25 0 c-24 0 -25 -2 -25 -71z m-41 -84 c16 -8 31 -22 35 -30 10 -27
7 -112 -5 -139 -23 -50 -103 -57 -134 -13 -38 54 -25 156 23 181 34 19 46 19
81 1z"/>
<path d="M6350 3240 l0 -200 30 0 30 0 0 157 0 156 98 -154 c90 -142 100 -154
130 -157 l32 -3 0 200 0 201 -25 0 -25 0 0 -156 c0 -85 -3 -153 -8 -150 -4 2
-50 72 -102 155 -90 145 -96 151 -127 151 l-33 0 0 -200z"/>
<path d="M7550 3415 c0 -20 5 -25 25 -25 20 0 25 5 25 25 0 20 -5 25 -25 25
-20 0 -25 -5 -25 -25z"/>
<path d="M8900 3240 c0 -193 1 -200 20 -200 19 0 20 7 20 200 0 193 -1 200
-20 200 -19 0 -20 -7 -20 -200z"/>
<path d="M2873 3320 c-27 -16 -33 -17 -33 -5 0 9 -10 15 -25 15 l-25 0 0 -145
0 -145 25 0 c25 0 25 0 25 99 0 84 3 102 21 125 16 20 29 26 59 26 55 0 63
-16 68 -141 4 -98 6 -109 23 -109 18 0 19 9 19 119 0 66 -3 127 -6 136 -8 21
-56 45 -91 45 -15 0 -43 -9 -60 -20z"/>
<path d="M3743 3306 c-35 -32 -37 -38 -41 -104 -7 -114 35 -172 123 -172 48 0
91 24 110 60 20 38 19 40 -9 40 -15 0 -27 -7 -31 -19 -8 -25 -55 -44 -89 -35
-31 7 -56 39 -56 71 0 22 2 23 106 23 l106 0 -7 43 c-15 88 -56 127 -135 127
-32 0 -48 -7 -77 -34z m131 -27 c15 -12 26 -30 26 -45 0 -23 -2 -24 -75 -24
-80 0 -88 7 -64 51 21 40 74 49 113 18z"/>
<path d="M4173 3330 c-12 -5 -26 -17 -32 -27 -10 -16 -10 -16 -11 5 0 17 -6
22 -25 22 l-25 0 0 -145 0 -145 25 0 c25 0 25 1 25 89 0 112 9 136 54 151 28
9 36 17 36 36 0 25 -11 28 -47 14z"/>
<path d="M4380 3333 c-35 -13 -50 -37 -50 -78 0 -52 8 -59 96 -88 65 -21 69
-24 69 -52 0 -26 -5 -31 -37 -39 -29 -7 -42 -6 -62 8 -14 9 -26 23 -26 31 0 9
-10 15 -25 15 -33 0 -33 -29 -1 -67 22 -25 30 -28 89 -28 55 0 69 4 91 24 18
17 26 35 26 58 0 63 -12 73 -126 103 -51 13 -64 38 -34 62 31 25 67 22 96 -7
14 -14 33 -25 44 -25 17 0 18 3 8 30 -5 17 -23 37 -39 45 -28 15 -90 19 -119
8z"/>
<path d="M5317 3324 c-25 -13 -47 -49 -47 -75 0 -19 45 -9 55 13 6 13 23 27
38 33 60 20 121 -53 62 -75 -14 -5 -40 -10 -56 -10 -37 0 -85 -24 -99 -49 -18
-34 -12 -80 15 -106 30 -31 87 -33 133 -5 39 24 42 24 42 6 0 -15 21 -26 51
-26 23 0 26 35 4 44 -12 4 -15 26 -15 105 0 55 -3 107 -6 116 -16 42 -122 59
-177 29z m129 -200 c-9 -34 -67 -61 -104 -48 -21 7 -27 16 -27 39 0 33 22 47
90 62 35 7 40 6 43 -10 2 -11 1 -30 -2 -43z"/>
<path d="M6852 3315 c-36 -30 -44 -75 -14 -75 11 0 24 11 30 24 13 29 57 41
95 27 21 -8 27 -17 27 -41 0 -16 -3 -30 -7 -30 -35 0 -130 -22 -148 -34 -13
-9 -26 -29 -30 -46 -19 -87 68 -138 154 -92 33 18 35 18 53 0 24 -24 58 -24
58 1 0 10 -7 21 -15 25 -12 4 -15 26 -15 110 0 132 -10 148 -96 154 -54 4 -63
1 -92 -23z m138 -168 c0 -41 -25 -66 -72 -73 -38 -7 -68 14 -68 45 0 33 39 51
128 60 7 1 12 -12 12 -32z"/>
<path d="M7255 3331 c-48 -21 -69 -59 -73 -130 -7 -112 36 -171 123 -171 48 0
91 24 110 60 21 40 19 50 -10 50 -14 0 -25 -6 -25 -13 0 -25 -40 -51 -76 -51
-50 0 -73 33 -74 101 0 66 15 98 51 114 38 15 87 -4 95 -37 4 -17 13 -24 30
-24 33 0 31 31 -4 71 -23 26 -37 32 -78 35 -27 2 -58 0 -69 -5z"/>
<path d="M7794 3321 c-36 -22 -64 -83 -64 -139 1 -53 33 -118 69 -136 66 -35
156 -12 188 47 23 42 23 141 1 183 -32 60 -132 83 -194 45z m133 -42 c38 -32
40 -136 4 -181 -26 -31 -92 -32 -123 -1 -26 27 -36 115 -16 153 25 47 95 62
135 29z"/>
<path d="M8234 3331 c-12 -5 -25 -14 -29 -20 -9 -16 -25 -13 -25 4 0 8 -9 15
-20 15 -19 0 -20 -7 -20 -145 l0 -145 25 0 25 0 0 105 c0 124 12 145 80 145
53 0 60 -16 60 -144 l0 -106 25 0 25 0 0 119 c0 110 -2 122 -23 146 -24 29
-86 42 -123 26z"/>
<path d="M8574 3330 c-26 -10 -54 -48 -54 -72 0 -28 39 -23 50 6 19 51 130 39
130 -14 0 -25 -5 -27 -80 -39 -82 -13 -110 -38 -110 -97 0 -34 5 -47 26 -63
34 -26 89 -27 130 -2 31 19 32 19 48 0 8 -10 25 -19 36 -19 27 0 38 30 17 42
-14 7 -17 26 -17 109 0 98 -1 101 -29 130 -25 24 -37 29 -78 28 -26 0 -58 -4
-69 -9z m123 -187 c-4 -21 -15 -44 -24 -51 -51 -37 -113 -22 -113 27 0 35 5
39 62 50 80 16 81 15 75 -26z"/>
<path d="M3180 3185 l0 -145 25 0 25 0 0 145 0 145 -25 0 -25 0 0 -145z"/>
<path d="M3346 3308 c4 -13 27 -78 51 -145 43 -116 47 -123 72 -123 22 0 30 6
38 33 6 17 29 83 51 145 l41 112 -27 0 c-25 0 -29 -7 -60 -105 -19 -58 -37
-107 -41 -110 -5 -2 -25 45 -46 105 -34 100 -39 110 -62 110 -21 0 -23 -3 -17
-22z"/>
<path d="M4680 3185 l0 -145 25 0 25 0 0 145 0 145 -25 0 -25 0 0 -145z"/>
<path d="M7550 3185 l0 -145 25 0 25 0 0 145 0 145 -25 0 -25 0 0 -145z"/>
<path d="M2330 2565 l0 -295 70 0 70 0 0 110 0 110 110 0 110 0 0 60 0 60
-110 0 -110 0 0 65 0 65 130 0 130 0 0 60 0 60 -200 0 -200 0 0 -295z"/>
<path d="M3480 2760 c0 -60 -4 -100 -10 -100 -5 0 -10 5 -10 11 0 5 -21 19
-46 30 -65 29 -117 19 -166 -32 -116 -121 -74 -370 68 -408 48 -13 102 0 129
29 23 26 35 25 30 0 -4 -18 2 -20 66 -20 l69 0 0 295 0 295 -65 0 -65 0 0
-100z m-22 -188 c21 -32 22 -129 3 -166 -16 -30 -48 -41 -87 -32 -48 12 -71
123 -38 187 27 52 91 58 122 11z"/>
<path d="M4440 2800 l0 -60 65 0 65 0 0 60 0 60 -65 0 -65 0 0 -60z"/>
<path d="M5720 2858 c0 -2 42 -133 94 -293 l93 -290 69 -3 69 -2 90 280 c50
155 91 287 93 295 3 12 -11 15 -70 15 l-73 0 -49 -187 c-27 -104 -52 -196 -55
-206 -4 -11 -23 48 -49 150 -24 93 -48 185 -53 206 l-10 37 -74 0 c-41 0 -75
-1 -75 -2z"/>
<path d="M6250 2800 l0 -60 65 0 65 0 0 60 0 60 -65 0 -65 0 0 -60z"/>
<path d="M6460 2565 l0 -295 65 0 65 0 0 295 0 295 -65 0 -65 0 0 -295z"/>
<path d="M6670 2565 l0 -295 65 0 65 0 0 295 0 295 -65 0 -65 0 0 -295z"/>
<path d="M8810 2565 l0 -295 70 0 70 0 0 295 0 295 -70 0 -70 0 0 -295z"/>
<path d="M2867 2705 c-50 -17 -82 -47 -108 -102 -18 -36 -20 -58 -17 -132 3
-80 6 -94 33 -132 41 -58 94 -84 170 -83 80 1 136 30 170 87 14 24 25 47 25
50 0 4 -27 7 -60 7 -47 0 -64 -4 -80 -20 -25 -25 -81 -26 -103 -2 -8 9 -19 29
-22 45 l-7 27 141 0 141 0 0 38 c0 165 -137 270 -283 217z m132 -111 c12 -15
21 -35 21 -45 0 -17 -9 -19 -76 -19 l-76 0 7 28 c16 65 85 85 124 36z"/>
<path d="M3785 2701 c-48 -22 -79 -54 -98 -101 -49 -118 -18 -256 70 -316 64
-43 169 -40 238 7 29 20 75 83 75 103 0 3 -28 6 -63 6 -50 0 -66 -4 -80 -20
-17 -20 -71 -27 -93 -12 -15 10 -34 47 -34 66 0 14 20 16 140 16 l140 0 0 33
c0 170 -153 284 -295 218z m144 -107 c12 -15 21 -35 21 -45 0 -17 -8 -19 -75
-19 -67 0 -75 2 -75 19 0 34 38 71 75 71 24 0 39 -7 54 -26z"/>
<path d="M4345 2705 c-22 -8 -50 -27 -62 -42 l-23 -28 0 33 0 32 -65 0 -65 0
0 -215 0 -215 63 0 64 0 6 127 c5 116 8 128 30 151 16 16 37 24 61 25 l36 1 0
73 c0 40 -1 73 -2 73 -2 -1 -21 -7 -43 -15z"/>
<path d="M4762 2706 c-102 -36 -157 -179 -121 -310 17 -60 80 -122 140 -136
94 -23 191 17 228 93 34 71 31 77 -41 77 -60 0 -64 -2 -80 -31 -16 -26 -22
-30 -55 -27 -48 4 -63 31 -63 113 0 90 30 135 82 122 13 -4 30 -18 36 -32 11
-23 17 -25 77 -25 72 0 76 5 51 63 -37 88 -153 130 -254 93z"/>
<path d="M5172 2694 c-70 -35 -103 -90 -110 -182 -6 -93 11 -148 62 -198 70
-71 180 -83 271 -29 112 65 131 279 35 375 -64 64 -170 78 -258 34z m147 -101
c46 -38 49 -166 5 -210 -37 -37 -85 -29 -109 18 -30 57 -12 186 27 202 26 11
56 7 77 -10z"/>
<path d="M8040 2704 c-163 -70 -173 -349 -17 -431 42 -22 151 -22 192 -1 39
21 81 66 94 101 l11 27 -64 0 c-50 0 -67 -4 -81 -20 -21 -23 -72 -27 -98 -7
-9 6 -20 27 -23 45 l-6 32 142 0 142 0 -7 58 c-9 75 -34 131 -74 164 -56 47
-145 61 -211 32z m133 -101 c8 -10 19 -30 22 -45 l7 -28 -76 0 c-67 0 -76 2
-76 19 0 10 9 30 21 45 24 31 77 36 102 9z"/>
<path d="M6949 2689 c-38 -23 -57 -47 -70 -91 l-8 -28 59 0 c50 0 63 4 84 25
30 30 59 32 86 5 36 -36 7 -58 -95 -76 -102 -17 -153 -74 -142 -158 15 -107
124 -147 221 -81 34 23 36 23 36 5 0 -18 7 -20 71 -20 64 0 70 2 63 18 -4 9
-10 89 -13 177 -7 180 -15 205 -76 231 -53 22 -172 18 -216 -7z m168 -260 c-7
-52 -31 -79 -72 -79 -36 0 -55 15 -55 46 0 27 17 41 71 58 63 20 62 20 56 -25z"/>
<path d="M7487 2680 c-41 -36 -44 -36 -43 -7 1 20 -4 22 -61 25 l-63 3 0 -216
0 -215 64 0 64 0 4 130 c3 117 5 132 25 151 14 14 34 22 62 23 l41 1 0 67 0
68 -30 0 c-18 0 -42 -11 -63 -30z"/>
<path d="M7790 2674 l-40 -36 0 31 0 31 -60 0 -60 0 0 -215 0 -215 64 0 64 0
4 130 c3 117 5 132 25 151 14 14 34 22 62 23 l41 1 0 67 0 68 -30 0 c-20 0
-43 -12 -70 -36z"/>
<path d="M8450 2691 c-34 -18 -61 -54 -75 -98 -6 -22 -4 -23 54 -23 49 0 62 4
71 19 12 24 62 36 89 21 26 -13 28 -57 4 -64 -10 -3 -49 -12 -88 -21 -38 -9
-80 -22 -92 -31 -61 -39 -70 -149 -18 -204 49 -51 147 -48 207 7 17 15 18 15
18 -5 0 -20 5 -22 71 -22 64 0 70 2 63 18 -4 9 -11 89 -14 177 -6 178 -13 200
-75 229 -48 23 -170 21 -215 -3z m160 -261 c0 -48 -27 -80 -68 -80 -35 0 -52
16 -52 51 0 32 6 37 69 54 25 7 47 14 49 14 1 1 2 -17 2 -39z"/>
<path d="M4440 2485 l0 -215 65 0 65 0 0 215 0 215 -65 0 -65 0 0 -215z"/>
<path d="M6250 2485 l0 -215 65 0 65 0 0 215 0 215 -65 0 -65 0 0 -215z"/>
<path d="M11 234 c0 -11 3 -14 6 -6 3 7 2 16 -1 19 -3 4 -6 -2 -5 -13z"/>
</g>
</svg>
